{"glyphs":{"0":{"ha":903,"x_min":0,"x_max":0,"o":"m 451 -10 b 861 507 704 -12 861 264 b 451 1024 861 728 721 1024 b 42 507 193 1025 42 744 b 451 -10 42 286 181 -8 z m 183 507 b 451 901 183 651 264 901 b 719 507 628 901 719 661 b 451 114 719 363 638 114 b 183 507 274 114 183 354 z "},"1":{"ha":453,"x_min":0,"x_max":0,"o":"m 328 1035 l 83 764 l 83 600 l 194 715 l 194 0 l 328 0 z "},"2":{"ha":739,"x_min":0,"x_max":0,"o":"m 346 122 l 549 419 b 657 722 632 547 657 635 b 371 1021 657 890 526 1021 b 75 724 207 1021 75 881 b 283 504 75 607 168 504 l 283 631 b 219 721 249 639 219 689 b 371 889 219 804 281 889 b 517 726 472 889 514 792 b 428 497 518 639 468 561 b 68 0 364 414 260 267 l 657 0 l 671 122 z "},"3":{"ha":757,"x_min":0,"x_max":0,"o":"m 369 774 l 618 1018 l 64 1018 l 54 899 l 288 899 l 150 757 l 147 757 l 147 593 b 292 650 189 626 238 650 b 550 382 432 650 550 510 b 290 117 550 247 424 117 b 124 185 219 117 165 153 l 31 78 b 289 -15 99 21 188 -15 b 688 383 517 -15 688 181 b 369 774 688 581 540 739 z "},"4":{"ha":735,"x_min":0,"x_max":0,"o":"m 632 335 l 579 335 l 579 614 l 443 614 l 443 335 l 218 335 l 485 1018 l 339 1018 l 14 217 l 443 217 l 443 0 l 579 0 l 579 217 l 621 217 z "},"5":{"ha":764,"x_min":0,"x_max":0,"o":"m 299 781 b 254 779 288 781 264 781 l 293 903 l 619 903 l 610 1018 l 194 1018 b 64 701 67 704 65 703 l 153 597 b 300 640 194 624 244 640 b 558 382 440 640 558 510 b 300 117 558 246 432 117 b 115 203 229 117 158 160 l 14 108 b 301 -17 86 32 189 -17 b 694 382 525 -18 694 181 b 299 781 694 611 499 782 z "},"6":{"ha":825,"x_min":0,"x_max":0,"o":"m 400 740 b 350 731 383 740 357 735 l 518 1018 l 357 1018 l 89 554 b 38 363 56 497 36 432 b 413 -12 43 154 213 -12 b 788 363 625 -12 788 175 b 400 740 788 581 603 740 z m 413 113 b 176 363 285 113 176 224 b 414 610 176 488 263 610 b 650 363 561 610 650 482 b 413 113 650 224 533 113 z "},"7":{"ha":656,"x_min":0,"x_max":0,"o":"m 42 1018 l 32 896 l 457 896 l 99 0 l 244 0 l 656 1018 z "},"8":{"ha":760,"x_min":0,"x_max":0,"o":"m 574 604 b 633 769 610 649 633 707 b 376 1029 633 914 511 1029 b 118 769 232 1029 118 907 b 181 599 118 706 140 646 b 42 324 94 531 42 435 b 381 -15 42 129 208 -15 b 718 324 574 -15 718 153 b 574 604 718 444 657 544 z m 381 110 b 186 324 267 110 186 228 b 382 539 186 431 263 538 b 574 324 485 542 574 422 b 381 110 574 210 494 110 z m 267 769 b 376 889 267 829 317 889 b 486 776 440 889 486 836 b 381 651 486 708 444 651 b 267 769 306 651 267 717 z "},"9":{"ha":828,"x_min":0,"x_max":0,"o":"m 428 278 b 476 285 440 279 467 282 l 313 0 l 472 0 l 739 464 b 792 656 771 521 793 583 b 417 1031 786 864 617 1031 b 42 656 203 1031 42 843 b 428 278 42 438 233 272 z m 417 892 b 646 656 544 892 646 771 b 415 418 646 531 538 418 b 186 656 288 418 186 536 b 417 892 186 778 296 892 z "},"\u0000":{"ha":0,"x_min":0,"x_max":0,"o":""},"\r":{"ha":539,"x_min":0,"x_max":0,"o":""}," ":{"ha":440,"x_min":0,"x_max":0,"o":""},"E":{"ha":713,"x_min":0,"x_max":0,"o":"m 246 335 l 553 335 l 567 475 l 246 475 l 246 881 l 622 881 l 608 1018 l 106 1018 l 106 0 l 608 0 l 622 136 l 246 136 z "},"F":{"ha":697,"x_min":0,"x_max":0,"o":"m 244 881 l 621 881 l 607 1018 l 106 1018 l 106 0 l 244 0 l 244 335 l 519 335 l 533 475 l 244 475 z "},"G":{"ha":1108,"x_min":0,"x_max":0,"o":"m 525 600 l 514 469 l 851 469 l 851 226 b 582 118 779 156 681 118 b 201 508 371 118 201 306 b 582 899 201 719 382 899 b 849 785 685 899 781 853 l 908 921 b 588 1032 819 992 711 1032 b 64 510 297 1033 64 785 b 588 -14 64 217 311 -14 b 999 188 756 -14 904 68 l 999 601 b 525 600 842 601 682 600 z "},"H":{"ha":876,"x_min":0,"x_max":0,"o":"m 632 1018 l 632 471 l 246 471 l 246 1018 l 106 1018 l 106 0 l 246 0 l 246 342 l 632 342 l 632 0 l 772 0 l 772 1018 z "},"I":{"ha":382,"x_min":0,"x_max":0,"o":"m 261 1018 l 121 1018 l 121 0 l 261 0 z "},"J":{"ha":425,"x_min":0,"x_max":0,"o":"m 179 1018 l 179 69 b -7 -133 179 -33 94 -133 l -7 -256 b 318 68 182 -243 314 -107 l 318 1018 z "},"K":{"ha":781,"x_min":0,"x_max":0,"o":"m 335 394 l 564 0 l 713 0 l 411 522 l 701 1018 l 556 1018 l 246 479 l 246 1018 l 106 1018 l 106 0 l 246 0 l 246 244 z "},"L":{"ha":725,"x_min":0,"x_max":0,"o":"m 249 136 l 249 1018 l 106 1018 l 106 0 l 650 0 l 664 136 z "},"M":{"ha":1088,"x_min":0,"x_max":0,"o":"m 794 1033 l 542 358 l 292 1033 l 74 0 l 213 0 l 325 549 l 531 -8 l 753 576 l 872 0 l 1014 0 z "},"N":{"ha":932,"x_min":0,"x_max":0,"o":"m 828 -19 l 828 1018 l 688 1018 l 688 371 l 106 1031 l 106 0 l 246 0 l 246 635 z "},"O":{"ha":1176,"x_min":0,"x_max":0,"o":"m 590 -18 b 1114 507 861 -18 1114 214 b 590 1031 1114 781 883 1031 b 64 507 315 1031 64 803 b 590 -18 64 232 297 -18 z m 201 507 b 590 906 201 708 376 906 b 976 507 790 906 976 721 b 590 107 976 313 808 107 b 201 507 389 107 201 292 z "},"P":{"ha":843,"x_min":0,"x_max":0,"o":"m 760 681 b 422 1018 760 874 593 1018 l 104 1018 l 104 0 l 244 0 l 244 342 l 422 342 b 760 681 617 342 760 507 z m 244 471 l 244 889 l 425 889 b 624 681 539 889 624 785 b 422 471 624 569 532 471 z "},"Q":{"ha":1204,"x_min":0,"x_max":0,"o":"m 1113 42 l 997 182 b 1111 507 1068 271 1111 385 b 586 1031 1111 799 864 1031 b 63 507 293 1031 63 785 b 586 -18 63 215 310 -18 b 892 78 700 -18 804 18 l 1001 -51 z m 586 111 b 200 507 374 111 200 306 b 586 901 200 719 385 901 b 974 507 800 901 974 708 b 910 293 974 428 953 353 l 706 535 l 632 383 l 799 189 b 586 111 750 146 664 111 z "},"R":{"ha":838,"x_min":0,"x_max":0,"o":"m 761 0 l 601 394 b 760 681 706 467 760 571 b 422 1018 760 874 594 1018 l 106 1018 l 106 0 l 246 0 l 246 342 l 425 342 b 460 344 438 342 449 343 l 604 0 z m 246 471 l 246 889 l 424 889 b 622 681 539 889 622 786 b 424 471 622 567 533 471 z "},"S":{"ha":793,"x_min":0,"x_max":0,"o":"m 403 -8 b 713 278 544 -8 713 103 b 265 751 713 518 265 589 b 426 901 265 838 343 901 b 597 824 482 901 546 871 l 693 925 b 425 1029 626 986 524 1029 b 122 754 261 1029 122 932 b 571 260 122 471 571 460 b 408 122 571 219 531 122 b 156 292 285 122 226 193 l 35 208 b 403 -8 115 93 247 -8 z "},"T":{"ha":801,"x_min":0,"x_max":0,"o":"m 739 897 l 725 1018 l 76 1018 l 63 897 l 331 897 l 331 0 l 471 0 l 471 897 z "},"U":{"ha":871,"x_min":0,"x_max":0,"o":"m 763 1018 l 626 1018 l 626 317 b 433 126 628 214 532 126 b 250 317 329 126 250 219 l 250 1018 l 110 1018 l 110 314 b 435 -17 107 128 267 -17 b 763 301 621 -17 764 138 z "},"V":{"ha":942,"x_min":0,"x_max":0,"o":"m 468 -10 l 876 1018 l 740 1018 l 478 333 l 210 1018 l 63 1018 z "},"W":{"ha":1281,"x_min":0,"x_max":0,"o":"m 840 -10 l 1251 1018 l 1104 1018 l 843 363 l 658 825 l 474 363 l 213 1018 l 63 1018 l 472 -10 l 657 457 z "},"X":{"ha":851,"x_min":0,"x_max":0,"o":"m 799 0 l 501 514 l 792 1018 l 632 1018 l 421 651 l 210 1018 l 49 1018 l 342 510 l 47 0 l 206 0 l 421 372 l 636 0 z "},"Y":{"ha":836,"x_min":0,"x_max":0,"o":"m 793 1018 l 633 1018 l 425 657 l 217 1018 l 56 1018 l 353 503 l 353 0 l 493 0 l 493 500 z "},"Z":{"ha":861,"x_min":0,"x_max":0,"o":"m 782 1018 l 129 1018 l 115 881 l 549 881 l 81 0 l 729 0 l 743 136 l 314 136 z "},"D":{"ha":1018,"x_min":0,"x_max":0,"o":"m 106 1018 l 106 0 l 443 0 b 956 508 726 0 956 239 b 443 1018 956 793 713 1019 z m 246 131 l 246 886 l 375 886 b 806 508 651 886 806 725 b 375 131 806 257 600 131 z "},"A":{"ha":894,"x_min":0,"x_max":0,"o":"m 449 1036 l 36 0 l 186 0 l 249 153 l 642 153 l 704 0 l 858 0 z m 300 286 l 444 657 l 590 286 z "},"B":{"ha":907,"x_min":0,"x_max":0,"o":"m 826 332 b 653 624 826 463 751 574 b 701 772 683 667 701 717 b 454 1018 701 911 585 1018 l 106 1018 l 106 0 l 497 0 b 826 332 679 -1 826 153 z m 246 131 l 246 524 l 494 524 b 674 329 583 524 674 463 b 493 131 674 193 578 131 z m 457 885 b 567 775 515 885 567 831 b 440 656 567 683 500 656 l 246 656 l 246 885 z "},"C":{"ha":1018,"x_min":0,"x_max":0,"o":"m 853 238 b 581 125 785 168 688 125 b 217 508 371 125 217 310 b 581 893 217 718 382 893 b 850 788 685 893 781 854 l 908 921 b 588 1032 821 990 708 1032 b 64 508 297 1032 64 783 b 588 -14 64 217 313 -14 b 953 135 729 -14 860 43 z "},"?":{"ha":713,"x_min":0,"x_max":0,"o":"m 632 738 b 356 1017 633 893 500 1017 b 82 738 201 1017 82 886 b 161 536 82 664 108 590 l 260 640 b 215 739 229 668 215 701 b 356 881 215 819 281 881 b 499 739 438 881 499 815 b 274 283 499 579 276 494 l 417 283 b 632 738 413 472 632 557 z m 428 69 b 349 150 428 114 394 150 b 269 69 306 150 269 114 b 349 -10 269 26 306 -10 b 428 69 394 -10 428 26 z "},"!":{"ha":379,"x_min":0,"x_max":0,"o":"m 249 283 l 251 1018 l 121 1018 l 124 283 z m 186 150 b 107 69 142 150 107 114 b 186 -10 107 26 142 -10 b 267 69 231 -10 267 26 b 186 150 267 114 231 150 z "},".":{"ha":328,"x_min":0,"x_max":0,"o":"m 271 69 b 190 150 271 114 236 150 b 111 69 147 150 111 114 b 190 -10 111 26 147 -10 b 271 69 236 -10 271 26 z "},",":{"ha":328,"x_min":0,"x_max":0,"o":"m 190 150 b 111 69 147 150 111 114 b 178 -8 111 31 140 -3 b 117 -58 163 -39 139 -54 l 117 -101 b 271 69 199 -83 271 3 b 190 150 271 114 236 150 z "},":":{"ha":382,"x_min":0,"x_max":0,"o":"m 190 150 b 111 69 146 150 111 114 b 190 -10 111 26 146 -10 b 271 69 235 -10 271 26 b 190 150 271 114 235 150 z m 190 525 b 271 606 235 525 271 561 b 190 685 271 649 235 685 b 111 606 146 685 111 649 b 190 525 111 561 146 525 z "},";":{"ha":382,"x_min":0,"x_max":0,"o":"m 190 525 b 271 606 236 525 271 561 b 190 685 271 649 236 685 b 111 606 147 685 111 649 b 190 525 111 561 147 525 z m 190 150 b 111 69 147 150 111 114 b 178 -8 111 31 140 -3 b 117 -58 163 -39 139 -54 l 117 -101 b 271 69 199 -83 271 3 b 190 150 271 114 236 150 z "},"/":{"ha":608,"x_min":0,"x_max":0,"o":"m 31 -61 l 163 -61 l 608 1046 l 478 1046 z "},"\\":{"ha":651,"x_min":0,"x_max":0,"o":"m 176 1046 l 44 1046 l 492 -61 l 624 -61 z "},"(":{"ha":426,"x_min":0,"x_max":0,"o":"m 246 1047 b 56 431 151 921 57 728 b 246 -182 56 136 151 -57 l 371 -182 b 181 431 264 -32 181 161 b 371 1047 181 703 261 900 z "},")":{"ha":426,"x_min":0,"x_max":0,"o":"m 56 1047 b 246 431 165 900 246 703 b 56 -182 246 161 163 -32 l 181 -182 b 371 431 275 -57 371 136 b 181 1047 369 728 275 921 z "},"|":{"ha":435,"x_min":0,"x_max":0,"o":"m 167 -343 l 268 -343 l 268 1118 l 167 1118 z "},"&":{"ha":1075,"x_min":0,"x_max":0,"o":"m 931 508 b 838 460 906 481 874 460 b 589 528 750 460 678 528 b 396 424 507 528 443 478 l 492 342 b 589 401 521 374 551 401 b 717 361 635 401 679 376 b 457 111 713 219 597 115 b 199 358 311 119 199 222 b 456 606 199 492 311 600 b 581 601 492 604 533 601 l 581 749 b 456 750 533 749 497 751 b 369 832 400 749 369 796 b 457 917 369 878 411 917 b 517 896 481 917 500 908 l 615 993 b 456 1058 575 1033 518 1058 b 232 835 332 1054 232 954 b 274 701 232 785 246 740 b 71 358 147 632 71 499 b 457 -31 71 136 258 -31 b 846 333 672 -31 831 144 b 1019 418 921 340 975 375 z "},"-":{"ha":674,"x_min":0,"x_max":0,"o":"m 563 481 l 111 481 l 111 374 l 563 374 z "},"+":{"ha":833,"x_min":0,"x_max":0,"o":"m 721 482 l 469 482 l 469 746 l 363 746 l 363 482 l 113 482 l 113 375 l 363 375 l 363 110 l 469 110 l 469 375 l 721 375 z "},"=":{"ha":857,"x_min":0,"x_max":0,"o":"m 111 221 l 746 221 l 746 329 l 111 329 z m 111 613 l 111 506 l 746 506 l 746 613 z "},"#":{"ha":1131,"x_min":0,"x_max":0,"o":"m 1004 599 l 1004 708 l 822 708 l 921 1018 l 815 1018 l 718 708 l 494 708 l 593 1018 l 488 1018 l 390 708 l 188 708 l 188 599 l 356 599 l 293 403 l 111 403 l 111 293 l 258 293 l 167 0 l 271 0 l 363 293 l 586 293 l 494 0 l 599 0 l 692 293 l 928 293 l 928 403 l 726 403 l 786 599 z m 621 403 l 399 403 l 458 599 l 683 599 z "},"*":{"ha":763,"x_min":0,"x_max":0,"o":"m 651 806 l 449 799 l 556 969 l 476 1017 l 381 839 l 285 1017 l 207 969 l 314 799 l 111 806 l 111 714 l 314 721 l 207 549 l 285 504 l 381 682 l 476 503 l 556 549 l 449 721 l 651 714 z "},"^":{"ha":667,"x_min":0,"x_max":0,"o":"m 556 482 l 333 1046 l 111 482 l 229 482 l 333 739 l 436 482 z "},"~":{"ha":963,"x_min":0,"x_max":0,"o":"m 636 349 b 849 446 717 349 788 389 l 760 535 b 636 472 726 504 688 472 b 335 553 531 472 446 553 b 111 433 246 553 174 504 l 206 353 b 335 429 238 388 279 429 b 636 349 439 429 525 349 z "},"–":{"ha":665,"x_min":0,"x_max":0,"o":"m 563 481 l 111 481 l 111 374 l 563 374 z "},"—":{"ha":944,"x_min":0,"x_max":0,"o":"m 799 481 l 111 481 l 111 374 l 799 374 z "},"_":{"ha":900,"x_min":0,"x_max":0,"o":"m 799 -74 l 111 -74 l 111 -181 l 799 -181 z "},"%":{"ha":1364,"x_min":0,"x_max":0,"o":"m 1010 486 b 764 243 869 482 764 372 b 1010 -1 764 108 881 -1 b 1253 243 1144 -1 1253 114 b 1010 486 1253 381 1138 486 z m 354 529 b 600 772 492 533 600 639 b 354 1017 600 910 483 1017 b 111 772 219 1017 111 901 b 354 529 111 638 226 529 z m 908 1018 l 321 0 l 439 0 l 1026 1018 z m 1010 124 b 888 243 939 128 888 181 b 1010 361 888 310 944 361 b 1131 243 1078 361 1131 306 b 1010 124 1131 175 1074 129 z m 233 772 b 354 892 239 838 288 892 b 476 772 421 892 476 835 b 354 654 476 706 419 654 b 233 772 286 654 233 710 z "},"‰":{"ha":1924,"x_min":0,"x_max":0,"o":"m 600 772 b 354 1017 600 910 483 1017 b 111 772 219 1017 111 901 b 354 529 111 638 226 529 b 600 772 492 533 600 639 z m 1010 486 b 764 243 869 482 764 372 b 1010 -1 764 108 881 -1 b 1253 243 1144 -1 1253 114 b 1010 486 1253 381 1138 486 z m 1569 486 b 1324 243 1429 482 1324 372 b 1569 -1 1324 108 1440 -1 b 1813 243 1704 -1 1813 114 b 1569 486 1813 381 1697 486 z m 906 1018 l 318 0 l 450 0 l 1036 1018 z m 233 772 b 354 892 239 838 288 892 b 476 772 421 892 476 835 b 354 654 476 706 419 654 b 233 772 286 654 233 710 z m 1010 124 b 888 243 939 128 888 181 b 1010 361 888 310 944 361 b 1131 243 1078 361 1131 306 b 1010 124 1131 175 1074 129 z m 1569 124 b 1447 243 1499 128 1447 181 b 1569 361 1447 310 1506 361 b 1690 243 1638 361 1690 306 b 1569 124 1690 175 1633 129 z "},"©":{"ha":1119,"x_min":0,"x_max":0,"o":"m 560 950 b 111 501 308 950 111 740 b 560 53 111 251 324 53 b 1008 501 808 53 1008 264 b 560 950 1008 751 797 950 z m 560 151 b 210 501 365 151 210 315 b 560 851 210 701 379 851 b 911 501 757 851 911 688 b 560 151 911 307 746 151 z m 581 658 b 688 618 622 658 660 643 l 746 678 b 572 749 679 707 656 749 b 326 501 435 749 326 631 b 572 254 326 365 444 254 b 746 325 640 254 701 282 b 747 326 746 325 746 326 l 701 371 l 688 388 b 581 344 660 361 622 344 b 424 501 493 344 424 415 b 581 658 424 589 493 658 z "},"®":{"ha":1106,"x_min":0,"x_max":0,"o":"m 560 950 b 111 501 308 950 111 740 b 560 53 111 251 324 53 b 1008 501 808 53 1008 264 b 560 950 1008 751 797 950 z m 560 151 b 210 501 365 151 210 315 b 560 851 210 701 379 851 b 911 501 757 851 911 688 b 560 151 911 307 746 151 z m 721 579 b 563 738 721 668 660 738 l 415 738 l 415 265 l 499 265 l 499 421 l 549 421 l 608 265 l 701 265 l 628 435 b 721 579 685 464 721 518 z m 565 492 l 499 492 l 499 667 l 542 667 b 643 579 611 667 643 643 b 565 492 644 528 615 492 z "},"™":{"ha":1081,"x_min":0,"x_max":0,"o":"m 883 1021 l 744 668 l 657 894 l 611 1024 l 496 481 l 586 481 l 639 732 l 740 475 l 749 499 l 847 747 l 904 481 l 994 481 l 906 899 z m 454 1014 l 118 1014 l 111 938 l 243 938 l 243 481 l 329 481 l 329 938 l 461 938 z "},"@":{"ha":1306,"x_min":0,"x_max":0,"o":"m 704 986 b 111 390 385 986 111 703 b 600 -99 111 114 339 -99 b 794 -65 668 -99 733 -87 l 761 28 b 600 0 710 8 656 0 b 206 390 371 0 206 188 b 704 889 206 663 450 889 b 1100 494 933 889 1100 700 b 919 189 1100 393 1047 189 b 897 204 910 189 897 186 l 954 742 l 857 742 l 851 689 b 692 753 806 728 749 753 b 343 410 501 753 343 589 b 636 117 340 242 486 117 b 804 178 700 117 758 143 b 925 89 817 121 872 89 b 1194 494 1119 89 1194 342 b 704 986 1194 776 969 986 z m 633 219 b 442 406 524 218 442 303 b 688 651 451 536 549 651 b 833 508 765 653 828 579 b 826 463 832 494 828 478 l 819 371 b 633 219 792 293 719 219 z "},"$":{"ha":713,"x_min":0,"x_max":0,"o":"m 657 276 b 375 593 657 438 517 515 b 246 729 331 617 246 663 b 317 831 246 779 276 811 b 385 846 338 839 360 844 b 546 785 440 847 501 821 l 640 888 b 435 981 586 936 511 971 l 435 1100 l 331 1100 l 331 976 b 115 729 213 953 115 863 b 526 276 115 469 526 504 b 375 150 526 207 440 150 b 146 290 282 150 200 215 l 33 211 b 332 14 101 113 206 29 l 332 -150 l 436 -150 l 436 19 b 657 276 550 46 657 147 z "},"¥":{"ha":846,"x_min":0,"x_max":0,"o":"m 483 493 l 803 1044 l 658 1044 l 421 642 l 182 1044 l 33 1044 l 358 488 l 354 476 l 192 476 l 192 368 l 353 368 l 353 254 l 192 254 l 192 146 l 353 146 l 353 -29 l 483 -29 l 483 146 l 643 146 l 643 254 l 483 254 l 483 368 l 643 368 l 643 476 l 483 476 z "},"€":{"ha":771,"x_min":0,"x_max":0,"o":"m 647 174 b 525 136 589 143 558 136 b 296 306 424 136 343 215 l 488 306 l 488 413 l 258 413 b 251 528 253 456 251 492 l 488 528 l 488 635 l 268 635 b 525 879 311 764 397 879 b 647 844 575 879 608 860 l 697 989 b 525 1035 647 1019 586 1035 b 119 635 304 1036 160 829 l 43 635 l 43 528 l 108 528 b 115 413 106 488 108 450 l 43 413 l 43 306 l 140 306 b 525 -18 200 121 349 -18 b 697 28 588 -18 647 -1 z "},"¢":{"ha":710,"x_min":0,"x_max":0,"o":"m 563 296 b 429 260 524 274 478 260 b 199 478 300 260 199 364 b 429 696 199 600 307 696 b 563 660 478 696 524 683 l 640 786 b 483 847 594 818 540 839 l 483 963 l 376 963 l 376 847 b 56 478 189 819 56 657 b 376 108 56 283 207 132 l 376 -11 l 483 -11 l 483 108 b 640 171 540 117 594 139 z "},"¤":{"ha":1132,"x_min":0,"x_max":0,"o":"m 1036 111 l 890 258 b 974 503 946 332 974 415 b 885 761 974 593 944 685 l 1036 907 l 963 979 l 815 832 b 550 925 739 893 644 925 b 306 843 463 925 371 897 l 169 979 l 94 907 l 231 771 b 149 524 178 692 149 611 b 242 260 149 432 179 338 l 94 111 l 169 39 l 318 188 b 571 101 393 129 483 101 b 818 183 664 101 746 133 l 963 39 z m 572 240 b 281 524 411 239 281 376 b 549 786 279 672 406 786 b 843 503 710 786 842 653 b 572 240 843 358 717 240 z "},"'":{"ha":382,"x_min":0,"x_max":0,"o":"m 190 1018 b 111 939 147 1018 111 982 b 178 860 111 899 140 867 b 117 811 163 831 139 815 l 117 768 b 271 939 199 786 271 871 b 190 1018 271 982 236 1018 z "},"\"":{"ha":594,"x_min":0,"x_max":0,"o":"m 190 1018 b 111 939 147 1018 111 982 b 178 860 111 899 140 867 b 117 811 163 831 139 815 l 117 768 b 271 939 199 786 271 872 b 190 1018 271 982 236 1018 z m 404 1018 b 325 939 360 1018 325 982 b 392 860 325 899 354 867 b 331 811 376 831 351 815 l 331 768 b 483 939 413 786 483 872 b 404 1018 483 982 450 1018 z "},"Æ":{"ha":1161,"x_min":0,"x_max":0,"o":"m 1079 136 l 701 136 l 701 335 l 1010 335 l 1024 475 l 701 475 l 701 881 l 1079 881 l 1065 1018 l 560 1018 l -28 0 l 135 0 l 222 153 l 560 153 l 560 0 l 1065 0 z m 560 290 l 303 290 l 560 738 z "},"Œ":{"ha":1299,"x_min":0,"x_max":0,"o":"m 839 335 l 1146 335 l 1160 475 l 839 475 l 839 881 l 1215 881 l 1201 1018 l 697 1018 b 582 1031 660 1026 621 1031 b 57 507 307 1031 57 803 b 582 -17 57 232 289 -17 b 697 0 621 -17 653 -10 l 1201 0 l 1215 136 l 839 136 z m 697 150 b 582 133 660 139 621 133 b 197 507 383 133 197 292 b 582 879 197 708 372 879 b 697 864 621 879 660 874 z "},"ß":{"ha":849,"x_min":0,"x_max":0,"o":"m 793 783 b 503 1072 793 942 643 1072 b 83 485 218 1072 83 790 l 83 -97 l 229 -97 l 229 488 b 494 946 229 685 307 946 b 654 785 589 946 654 869 b 371 483 654 635 371 656 b 428 369 371 438 394 401 b 664 233 624 414 664 306 b 551 106 664 176 603 106 b 431 194 504 106 453 163 l 311 113 b 547 -19 350 54 431 -19 b 800 233 711 -19 800 106 b 511 472 800 426 626 493 b 793 783 511 538 793 560 z "},"ƒ":{"ha":511,"x_min":0,"x_max":0,"o":"m 206 757 b 178 489 196 664 188 574 l 51 489 l 51 347 l 164 347 b 122 -37 128 10 122 -18 b 4 -178 107 -117 76 -178 l 4 -326 b 271 8 197 -314 249 -175 l 307 347 l 392 347 l 392 489 l 322 489 l 336 611 b 451 874 346 694 333 874 l 451 1018 b 206 757 311 1014 219 890 z "},"þ":{"ha":724,"x_min":0,"x_max":0,"o":"m 654 340 b 319 681 654 525 499 681 l 236 681 l 236 1018 l 96 1018 l 96 -315 l 236 -315 l 236 0 l 319 0 b 654 340 508 0 654 167 z m 321 143 l 236 143 l 236 539 l 321 539 b 525 340 438 539 525 446 b 321 143 526 231 431 143 z "},"Þ":{"ha":815,"x_min":0,"x_max":0,"o":"m 746 503 b 414 843 746 686 592 843 l 236 843 l 236 1018 l 96 1018 l 96 0 l 236 0 l 236 163 l 414 163 b 746 503 604 163 746 336 z m 413 306 l 236 306 l 236 701 l 413 701 b 619 503 526 701 619 608 b 413 306 619 393 521 306 z "},"…":{"ha":1167,"x_min":0,"x_max":0,"o":"m 271 69 b 192 150 271 114 236 150 b 111 69 147 150 111 114 b 192 -10 111 26 147 -10 b 271 69 236 -10 271 26 z m 661 69 b 582 150 661 114 628 150 b 503 69 539 150 503 114 b 582 -10 503 26 539 -10 b 661 69 628 -10 661 26 z m 1053 69 b 974 150 1053 114 1019 150 b 894 69 929 150 894 114 b 974 -10 894 26 929 -10 b 1053 69 1019 -10 1053 26 z "},"†":{"ha":571,"x_min":0,"x_max":0,"o":"m 508 683 l 336 683 l 336 1118 l 235 1118 l 235 683 l 63 683 l 63 583 l 235 583 l 235 -343 l 336 -343 l 336 583 l 508 583 z "},"‡":{"ha":571,"x_min":0,"x_max":0,"o":"m 508 583 l 508 683 l 336 683 l 336 1118 l 235 1118 l 235 683 l 63 683 l 63 583 l 235 583 l 235 192 l 63 192 l 63 92 l 235 92 l 235 -343 l 336 -343 l 336 92 l 508 92 l 508 192 l 336 192 l 336 583 z "},"œ":{"ha":1301,"x_min":0,"x_max":0,"o":"m 839 335 l 1146 335 l 1160 475 l 839 475 l 839 881 l 1215 881 l 1201 1018 l 697 1018 b 582 1031 660 1026 621 1031 b 57 507 307 1031 57 803 b 582 -17 57 232 289 -17 b 697 0 621 -17 653 -10 l 1201 0 l 1215 136 l 839 136 z m 697 150 b 582 133 660 139 621 133 b 197 507 383 133 197 292 b 582 879 197 708 372 879 b 697 864 621 879 660 874 z "},"£":{"ha":740,"x_min":0,"x_max":0,"o":"m 247 86 b 265 322 272 164 271 243 l 474 322 l 474 429 l 258 429 b 250 694 254 499 250 582 b 451 921 250 821 325 921 b 583 876 503 921 549 906 l 671 958 b 451 1042 606 1013 532 1042 b 128 694 256 1042 128 882 b 136 429 128 583 132 499 l 29 429 l 29 322 l 143 322 b 119 89 149 243 154 153 b 82 94 107 90 93 92 l 61 -32 b 217 -43 114 -40 165 -43 b 551 -28 338 -43 443 -28 b 669 -39 594 -28 631 -29 l 669 92 b 547 100 625 100 589 100 b 247 86 439 100 343 89 z "},"`":{"ha":799,"x_min":0,"x_max":0,"o":"m 206 888 l 450 724 l 511 776 l 306 971 z "},"´":{"ha":900,"x_min":0,"x_max":0,"o":"m 522 971 l 317 776 l 379 724 l 622 888 z "},"¨":{"ha":897,"x_min":0,"x_max":0,"o":"m 308 921 b 233 846 267 921 233 888 b 308 772 233 806 267 772 b 383 846 350 772 383 806 b 308 921 383 888 350 921 z m 576 921 b 501 846 535 921 501 888 b 576 772 501 806 535 772 b 651 846 619 772 651 806 b 576 921 651 888 619 921 z "},"ˆ":{"ha":913,"x_min":0,"x_max":0,"o":"m 649 803 l 443 968 l 238 803 l 299 751 l 443 849 l 586 751 z "},"ˇ":{"ha":868,"x_min":0,"x_max":0,"o":"m 589 968 l 446 872 l 301 968 l 240 918 l 446 751 l 651 918 z "},"˝":{"ha":1007,"x_min":0,"x_max":0,"o":"m 464 971 l 258 776 l 321 724 l 564 888 z m 692 971 l 486 776 l 547 724 l 792 888 z "},"˚":{"ha":826,"x_min":0,"x_max":0,"o":"m 444 699 b 585 839 518 699 585 760 b 444 978 585 913 522 978 b 304 839 371 978 304 917 b 444 699 304 764 367 699 z m 378 839 b 444 904 378 872 406 904 b 511 839 479 904 511 876 b 444 772 511 804 482 772 b 378 839 408 772 379 800 z "},"˘":{"ha":969,"x_min":0,"x_max":0,"o":"m 535 922 b 444 832 533 872 493 832 b 353 922 393 832 353 872 l 269 922 b 444 743 274 822 350 743 b 617 922 540 743 617 829 z "},"˙":{"ha":385,"x_min":0,"x_max":0,"o":"m 271 832 b 192 913 271 876 238 913 b 113 832 149 913 113 876 b 192 753 113 789 149 753 b 271 832 238 753 271 789 z "},"¸":{"ha":957,"x_min":0,"x_max":0,"o":"m 413 -317 b 608 -175 490 -317 608 -275 b 456 -39 608 -96 525 -51 l 456 -18 l 385 -18 l 385 -111 l 418 -111 b 540 -176 456 -111 540 -125 b 429 -243 540 -224 465 -243 l 368 -243 l 368 -317 z "},"˛":{"ha":790,"x_min":0,"x_max":0,"o":"m 322 -168 b 511 -326 322 -265 419 -321 l 511 -251 b 392 -168 465 -253 392 -228 b 511 -87 392 -112 463 -92 l 511 -11 b 322 -168 426 -11 322 -68 z "},"ı":{"ha":371,"x_min":0,"x_max":0,"o":"m 260 1018 l 111 1018 l 111 0 l 260 0 z "},"‚":{"ha":383,"x_min":0,"x_max":0,"o":"m 190 150 b 111 69 147 150 111 114 b 178 -8 111 31 140 -3 b 117 -58 163 -39 139 -54 l 117 -101 b 271 69 199 -83 271 3 b 190 150 271 114 236 150 z "},"„":{"ha":569,"x_min":0,"x_max":0,"o":"m 190 150 b 111 69 147 150 111 114 b 178 -8 111 31 140 -3 b 117 -58 163 -39 139 -54 l 117 -101 b 271 69 199 -83 271 3 b 190 150 271 114 236 150 z m 379 150 b 300 69 335 150 300 114 b 367 -8 300 31 329 -3 b 306 -58 350 -39 326 -54 l 306 -101 b 458 69 388 -83 458 3 b 379 150 458 114 425 150 z "},"’":{"ha":382,"x_min":0,"x_max":0,"o":"m 190 1018 b 111 939 147 1018 111 982 b 178 860 111 899 140 867 b 117 811 163 831 139 815 l 117 768 b 271 939 199 786 271 871 b 190 1018 271 982 236 1018 z "},"‘":{"ha":382,"x_min":0,"x_max":0,"o":"m 190 771 b 271 850 235 771 271 806 b 203 928 271 889 242 922 b 264 978 219 958 243 974 l 264 1021 b 111 850 183 1003 111 917 b 190 771 111 806 146 771 z "},"⁄":{"ha":465,"x_min":0,"x_max":0,"o":"m 590 1018 l 3 0 l 111 0 l 699 1018 z "},"¦":{"ha":440,"x_min":0,"x_max":0,"o":"m 167 1118 l 167 567 l 268 567 l 268 1118 z m 167 -343 l 268 -343 l 268 189 l 167 189 z "},"¡":{"ha":379,"x_min":0,"x_max":0,"o":"m 125 461 l 122 -274 l 253 -274 l 250 461 z m 188 594 b 267 675 232 594 267 631 b 188 754 267 718 232 754 b 107 675 143 754 107 718 b 188 594 107 631 143 594 z "},"¿":{"ha":719,"x_min":0,"x_max":0,"o":"m 54 4 b 329 -275 53 -150 186 -275 b 604 4 485 -275 604 -143 b 524 206 604 78 578 151 l 426 103 b 471 3 457 74 471 40 b 329 -139 471 -75 407 -139 b 186 3 249 -139 186 -72 b 411 458 186 163 408 247 l 269 458 b 54 4 274 269 53 185 z m 257 672 b 336 593 257 628 292 593 b 417 672 381 593 417 628 b 336 751 417 715 381 751 b 257 672 292 751 257 715 z "},"Ç":{"ha":1018,"x_min":0,"x_max":0,"o":"m 579 -39 l 579 -14 b 953 135 724 -17 860 42 l 853 238 b 581 125 785 168 688 125 b 217 508 371 125 217 310 b 581 893 217 718 382 893 b 850 788 685 893 781 854 l 908 921 b 588 1032 821 990 708 1032 b 64 508 297 1032 64 783 b 510 -7 64 246 268 32 l 510 -111 l 543 -111 b 650 -176 592 -111 650 -132 b 543 -243 650 -222 585 -243 l 475 -243 l 475 -317 l 544 -317 b 732 -175 628 -317 732 -267 b 579 -39 732 -94 642 -46 z "},"æ":{"ha":1165,"x_min":0,"x_max":0,"o":"m 1079 136 l 701 136 l 701 335 l 1010 335 l 1024 475 l 701 475 l 701 881 l 1079 881 l 1065 1018 l 560 1018 l -28 0 l 135 0 l 222 153 l 560 153 l 560 0 l 1065 0 z m 560 290 l 303 290 l 560 738 z "},"ç":{"ha":1018,"x_min":0,"x_max":0,"o":"m 579 -39 l 579 -14 b 953 135 724 -17 860 42 l 853 238 b 581 125 785 168 688 125 b 217 508 371 125 217 310 b 581 893 217 718 382 893 b 850 788 685 893 781 854 l 908 921 b 588 1032 821 990 708 1032 b 64 508 297 1032 64 783 b 510 -7 64 246 268 32 l 510 -111 l 543 -111 b 650 -176 592 -111 650 -132 b 543 -243 650 -222 585 -243 l 475 -243 l 475 -317 l 544 -317 b 732 -175 628 -317 732 -267 b 579 -39 732 -94 642 -46 z "},"«":{"ha":665,"x_min":0,"x_max":0,"o":"m 390 888 l 271 888 l 42 490 l 240 146 l 360 146 l 161 490 z m 638 888 l 518 888 l 289 490 l 488 146 l 606 146 l 408 490 z "},"‹":{"ha":418,"x_min":0,"x_max":0,"o":"m 390 888 l 271 888 l 42 490 l 240 146 l 360 146 l 161 490 z "},"›":{"ha":418,"x_min":0,"x_max":0,"o":"m 28 146 l 147 146 l 376 543 l 178 888 l 58 888 l 257 543 z "},"»":{"ha":665,"x_min":0,"x_max":0,"o":"m 275 146 l 394 146 l 624 543 l 425 888 l 306 888 l 504 543 z m 28 146 l 147 146 l 376 543 l 178 888 l 60 888 l 257 543 z "},"<":{"ha":788,"x_min":0,"x_max":0,"o":"m 646 293 l 311 490 l 646 688 l 646 829 l 56 490 l 646 153 z "},">":{"ha":788,"x_min":0,"x_max":0,"o":"m 125 689 l 460 492 l 125 294 l 125 153 l 715 492 l 125 829 z "},"”":{"ha":594,"x_min":0,"x_max":0,"o":"m 190 1018 b 111 939 147 1018 111 982 b 178 860 111 899 140 867 b 117 811 163 831 139 815 l 117 768 b 271 939 199 786 271 872 b 190 1018 271 982 236 1018 z m 404 1018 b 325 939 360 1018 325 982 b 392 860 325 899 354 867 b 331 811 376 831 351 815 l 331 768 b 483 939 413 786 483 872 b 404 1018 483 982 450 1018 z "},"“":{"ha":594,"x_min":0,"x_max":0,"o":"m 404 768 b 483 847 447 768 483 804 b 417 926 483 888 454 919 b 478 975 432 956 456 971 l 478 1018 b 325 847 396 1000 325 914 b 404 768 325 804 358 768 z m 190 768 b 271 847 235 768 271 804 b 203 926 271 888 242 919 b 264 975 219 956 243 971 l 264 1018 b 111 847 183 1000 111 914 b 190 768 111 804 146 768 z "},"§":{"ha":900,"x_min":0,"x_max":0,"o":"m 694 161 b 788 361 750 217 785 282 b 346 819 797 638 346 631 b 494 950 346 890 429 950 b 664 854 563 950 628 892 l 768 967 b 494 1071 694 1031 586 1071 b 196 824 351 1071 196 978 b 282 650 196 754 233 693 b 199 428 228 589 199 510 b 640 -35 199 147 640 172 b 486 -161 640 -108 550 -161 b 236 11 382 -161 289 -67 l 111 -78 b 486 -293 207 -203 342 -293 b 789 -35 635 -293 789 -192 b 694 161 789 40 754 119 z m 349 428 b 417 567 349 482 376 536 b 639 361 521 515 639 457 b 551 246 639 311 589 268 b 349 428 469 288 349 324 z "},"[":{"ha":426,"x_min":0,"x_max":0,"o":"m 232 968 l 364 968 l 350 1074 l 111 1074 l 111 -190 l 350 -190 l 364 -85 l 232 -85 z "},"]":{"ha":428,"x_min":0,"x_max":0,"o":"m 194 -85 l 63 -85 l 76 -190 l 315 -190 l 315 1074 l 76 1074 l 63 968 l 194 968 z "},"˜":{"ha":861,"x_min":0,"x_max":0,"o":"m 297 760 b 354 796 310 775 328 796 b 499 761 404 796 444 761 b 629 826 549 761 594 788 l 563 888 b 499 851 549 871 525 851 b 354 888 451 851 407 888 b 226 819 303 888 263 858 z "},"{":{"ha":654,"x_min":0,"x_max":0,"o":"m 371 282 b 211 415 372 311 308 374 b 374 585 332 457 367 535 b 501 965 392 735 440 863 l 599 965 l 585 1071 b 471 1069 585 1069 496 1076 b 253 617 381 1044 249 785 b 107 469 226 543 154 507 l 97 361 b 251 226 143 314 242 278 b 419 -182 249 64 344 -129 b 458 -193 426 -190 453 -193 b 585 -193 488 -199 585 -193 l 599 -87 l 485 -87 b 371 282 408 -33 388 139 z "},"}":{"ha":649,"x_min":0,"x_max":0,"o":"m 551 468 b 403 618 504 506 428 543 l 400 629 b 217 1051 368 804 315 969 b 176 1071 208 1060 188 1068 b 69 1071 149 1076 69 1071 l 56 965 l 153 965 b 281 585 215 863 261 735 b 443 415 288 535 322 457 b 283 286 354 376 290 319 l 283 282 b 169 -87 267 139 247 -33 l 56 -87 l 69 -193 b 190 -193 69 -193 158 -197 b 235 -182 203 -192 226 -189 b 403 224 333 -114 371 36 l 403 226 b 540 346 411 269 488 307 z "},"°":{"ha":394,"x_min":0,"x_max":0,"o":"m 197 739 b 338 878 271 739 338 800 b 197 1018 338 953 275 1018 b 57 878 124 1018 57 957 b 197 739 57 804 119 739 z m 131 878 b 197 944 131 913 158 944 b 264 878 232 944 264 915 b 197 813 264 843 235 813 b 131 878 161 813 132 839 z "},"À":{"ha":894,"x_min":0,"x_max":0,"o":"m 235 1211 l 479 1047 l 540 1100 l 335 1294 z m 449 1036 l 36 0 l 186 0 l 249 153 l 642 153 l 704 0 l 858 0 z m 300 286 l 444 657 l 590 286 z "},"Á":{"ha":894,"x_min":0,"x_max":0,"o":"m 560 1294 l 353 1100 l 417 1047 l 658 1211 z m 449 1036 l 36 0 l 186 0 l 249 153 l 642 153 l 704 0 l 858 0 z m 300 286 l 444 657 l 590 286 z "},"Â":{"ha":894,"x_min":0,"x_max":0,"o":"m 653 1131 l 447 1294 l 243 1131 l 303 1078 l 447 1176 l 590 1078 z m 449 1036 l 36 0 l 186 0 l 249 153 l 642 153 l 704 0 l 858 0 z m 300 286 l 444 657 l 590 286 z "},"Ã":{"ha":894,"x_min":0,"x_max":0,"o":"m 317 1083 b 374 1119 329 1099 347 1119 b 518 1085 424 1119 464 1085 b 649 1150 568 1085 614 1111 l 582 1211 b 518 1175 568 1194 544 1175 b 374 1211 471 1175 426 1211 b 246 1143 322 1211 282 1182 z m 449 1036 l 36 0 l 186 0 l 249 153 l 642 153 l 704 0 l 858 0 z m 300 286 l 444 657 l 590 286 z "},"Ä":{"ha":894,"x_min":0,"x_max":0,"o":"m 313 1244 b 238 1169 271 1244 238 1211 b 313 1096 238 1129 271 1096 b 388 1169 354 1096 388 1129 b 313 1244 388 1211 354 1244 z m 581 1244 b 506 1169 539 1244 506 1211 b 581 1096 506 1129 539 1096 b 656 1169 624 1096 656 1129 b 581 1244 656 1211 624 1244 z m 449 1036 l 36 0 l 186 0 l 249 153 l 642 153 l 704 0 l 858 0 z m 300 286 l 444 657 l 590 286 z "},"Å":{"ha":894,"x_min":0,"x_max":0,"o":"m 447 1021 l 36 0 l 186 0 l 249 153 l 642 153 l 704 0 l 858 0 z m 447 1022 b 588 1161 522 1022 588 1083 b 447 1301 588 1236 526 1301 b 308 1161 374 1301 308 1240 b 447 1022 308 1088 369 1022 z m 304 293 l 444 653 l 585 293 z m 382 1161 b 447 1228 382 1196 408 1228 b 514 1161 482 1228 514 1199 b 447 1096 514 1126 485 1096 b 382 1161 411 1096 383 1122 z "},"È":{"ha":711,"x_min":0,"x_max":0,"o":"m 244 335 l 551 335 l 565 475 l 244 475 l 244 881 l 621 881 l 607 1018 l 104 1018 l 104 0 l 607 0 l 621 136 l 244 136 z m 203 1211 l 447 1047 l 510 1100 l 303 1294 z "},"É":{"ha":711,"x_min":0,"x_max":0,"o":"m 244 335 l 551 335 l 565 475 l 244 475 l 244 881 l 621 881 l 607 1018 l 104 1018 l 104 0 l 607 0 l 621 136 l 244 136 z m 401 1294 l 196 1100 l 258 1047 l 501 1211 z "},"Ê":{"ha":711,"x_min":0,"x_max":0,"o":"m 244 335 l 551 335 l 565 475 l 244 475 l 244 881 l 621 881 l 607 1018 l 104 1018 l 104 0 l 607 0 l 621 136 l 244 136 z m 561 1126 l 356 1292 l 151 1126 l 211 1075 l 356 1172 l 499 1075 z "},"Ë":{"ha":711,"x_min":0,"x_max":0,"o":"m 244 335 l 551 335 l 565 475 l 244 475 l 244 881 l 621 881 l 607 1018 l 104 1018 l 104 0 l 607 0 l 621 136 l 244 136 z m 221 1244 b 146 1169 179 1244 146 1211 b 221 1096 146 1129 179 1096 b 296 1169 263 1096 296 1129 b 221 1244 296 1211 263 1244 z m 489 1244 b 414 1169 447 1244 414 1211 b 489 1096 414 1129 447 1096 b 564 1169 531 1096 564 1129 b 489 1244 564 1211 531 1244 z "},"Ì":{"ha":382,"x_min":0,"x_max":0,"o":"m 261 1018 l 121 1018 l 121 0 l 261 0 z m 11 1211 l 256 1047 l 317 1100 l 111 1294 z "},"Í":{"ha":382,"x_min":0,"x_max":0,"o":"m 261 1018 l 121 1018 l 121 0 l 261 0 z m 274 1294 l 68 1100 l 131 1047 l 374 1211 z "},"Î":{"ha":382,"x_min":0,"x_max":0,"o":"m 261 1018 l 121 1018 l 121 0 l 261 0 z m 394 1126 l 190 1292 l -15 1126 l 46 1075 l 190 1172 l 333 1075 z "},"Ï":{"ha":382,"x_min":0,"x_max":0,"o":"m 261 1018 l 121 1018 l 121 0 l 261 0 z m 57 1244 b -18 1169 15 1244 -18 1211 b 57 1096 -18 1129 15 1096 b 132 1169 99 1096 132 1129 b 57 1244 132 1211 99 1244 z m 324 1244 b 250 1169 283 1244 250 1211 b 324 1096 250 1129 283 1096 b 400 1169 367 1096 400 1129 b 324 1244 400 1211 367 1244 z "},"Ñ":{"ha":935,"x_min":0,"x_max":0,"o":"m 336 1083 b 394 1119 350 1099 367 1119 b 538 1085 443 1119 483 1085 b 668 1150 588 1085 633 1111 l 601 1211 b 538 1175 588 1194 564 1175 b 394 1211 490 1175 447 1211 b 267 1143 343 1211 301 1182 z m 828 -19 l 828 1018 l 688 1018 l 688 371 l 106 1031 l 106 0 l 246 0 l 246 635 z "},"Ò":{"ha":1176,"x_min":0,"x_max":0,"o":"m 435 1211 l 679 1047 l 740 1100 l 535 1294 z m 590 -18 b 1114 507 861 -18 1114 214 b 590 1031 1114 781 883 1031 b 64 507 315 1031 64 803 b 590 -18 64 232 297 -18 z m 201 507 b 590 906 201 708 376 906 b 976 507 790 906 976 721 b 590 107 976 313 808 107 b 201 507 389 107 201 292 z "},"Ó":{"ha":1176,"x_min":0,"x_max":0,"o":"m 640 1294 l 435 1100 l 497 1047 l 740 1211 z m 590 -18 b 1114 507 861 -18 1114 214 b 590 1031 1114 781 883 1031 b 64 507 315 1031 64 803 b 590 -18 64 232 297 -18 z m 201 507 b 590 906 201 708 376 906 b 976 507 790 906 976 721 b 590 107 976 313 808 107 b 201 507 389 107 201 292 z "},"Ô":{"ha":1176,"x_min":0,"x_max":0,"o":"m 793 1126 l 588 1292 l 383 1126 l 443 1075 l 588 1172 l 731 1075 z m 590 -18 b 1114 507 861 -18 1114 214 b 590 1031 1114 781 883 1031 b 64 507 315 1031 64 803 b 590 -18 64 232 297 -18 z m 201 507 b 590 906 201 708 376 906 b 976 507 790 906 976 721 b 590 107 976 313 808 107 b 201 507 389 107 201 292 z "},"Õ":{"ha":1176,"x_min":0,"x_max":0,"o":"m 457 1083 b 514 1119 471 1099 488 1119 b 658 1085 564 1119 604 1085 b 789 1150 708 1085 754 1111 l 722 1211 b 658 1175 708 1194 685 1175 b 514 1211 611 1175 568 1211 b 388 1143 464 1211 422 1182 z m 590 -18 b 1114 507 861 -18 1114 214 b 590 1031 1114 781 883 1031 b 64 507 315 1031 64 803 b 590 -18 64 232 297 -18 z m 201 507 b 590 906 201 708 376 906 b 976 507 790 906 976 721 b 590 107 976 313 808 107 b 201 507 389 107 201 292 z "},"Ö":{"ha":1176,"x_min":0,"x_max":0,"o":"m 456 1244 b 379 1169 413 1244 379 1211 b 456 1096 379 1129 413 1096 b 529 1169 496 1096 529 1129 b 456 1244 529 1211 496 1244 z m 722 1244 b 649 1169 681 1244 649 1211 b 722 1096 649 1129 681 1096 b 799 1169 765 1096 799 1129 b 722 1244 799 1211 765 1244 z m 590 -18 b 1114 507 861 -18 1114 214 b 590 1031 1114 781 883 1031 b 64 507 315 1031 64 803 b 590 -18 64 232 297 -18 z m 201 507 b 590 906 201 708 376 906 b 976 507 790 906 976 721 b 590 107 976 313 808 107 b 201 507 389 107 201 292 z "},"Ù":{"ha":871,"x_min":0,"x_max":0,"o":"m 239 1211 l 483 1047 l 546 1100 l 339 1294 z m 763 1018 l 626 1018 l 626 317 b 433 126 628 214 532 126 b 250 317 329 126 250 219 l 250 1018 l 110 1018 l 110 314 b 435 -17 107 128 267 -17 b 763 301 621 -17 764 138 z "},"Ú":{"ha":871,"x_min":0,"x_max":0,"o":"m 528 1294 l 322 1100 l 385 1047 l 628 1211 z m 763 1018 l 626 1018 l 626 317 b 433 126 628 214 532 126 b 250 317 329 126 250 219 l 250 1018 l 110 1018 l 110 314 b 435 -17 107 128 267 -17 b 763 301 621 -17 764 138 z "},"Û":{"ha":871,"x_min":0,"x_max":0,"o":"m 640 1126 l 435 1292 l 231 1126 l 290 1075 l 435 1172 l 578 1075 z m 763 1018 l 626 1018 l 626 317 b 433 126 628 214 532 126 b 250 317 329 126 250 219 l 250 1018 l 110 1018 l 110 314 b 435 -17 107 128 267 -17 b 763 301 621 -17 764 138 z "},"Ü":{"ha":871,"x_min":0,"x_max":0,"o":"m 300 1244 b 224 1169 257 1244 224 1211 b 300 1096 224 1129 257 1096 b 374 1169 340 1096 374 1129 b 300 1244 374 1211 340 1244 z m 567 1244 b 493 1169 525 1244 493 1211 b 567 1096 493 1129 525 1096 b 643 1169 610 1096 643 1129 b 567 1244 643 1211 610 1244 z m 763 1018 l 626 1018 l 626 317 b 433 126 628 214 532 126 b 250 317 329 126 250 219 l 250 1018 l 110 1018 l 110 314 b 435 -17 107 128 267 -17 b 763 301 621 -17 764 138 z "},"Ý":{"ha":836,"x_min":0,"x_max":0,"o":"m 793 1018 l 633 1018 l 425 657 l 217 1018 l 56 1018 l 353 503 l 353 0 l 493 0 l 493 500 z m 476 1294 l 271 1100 l 333 1047 l 576 1211 z "},"Ÿ":{"ha":836,"x_min":0,"x_max":0,"o":"m 793 1018 l 633 1018 l 425 657 l 217 1018 l 56 1018 l 353 503 l 353 0 l 493 0 l 493 500 z m 290 1244 b 214 1169 247 1244 214 1211 b 290 1096 214 1129 247 1096 b 364 1169 332 1096 364 1129 b 290 1244 364 1211 332 1244 z m 557 1244 b 483 1169 517 1244 483 1211 b 557 1096 483 1129 517 1096 b 633 1169 600 1096 633 1129 b 557 1244 633 1211 600 1244 z "},"Ž":{"ha":864,"x_min":0,"x_max":0,"o":"m 776 1018 l 124 1018 l 110 881 l 543 881 l 75 0 l 724 0 l 738 136 l 308 136 z m 601 1292 l 458 1196 l 314 1292 l 254 1242 l 458 1075 l 664 1242 z "},"Š":{"ha":793,"x_min":0,"x_max":0,"o":"m 568 1292 l 425 1196 l 279 1292 l 219 1242 l 425 1075 l 629 1242 z m 403 -8 b 713 278 544 -8 713 103 b 265 751 713 518 265 589 b 426 901 265 838 343 901 b 597 824 482 901 546 871 l 693 925 b 425 1029 626 986 524 1029 b 122 754 261 1029 122 932 b 571 260 122 471 571 460 b 408 122 571 219 531 122 b 156 292 285 122 226 193 l 35 208 b 403 -8 115 93 247 -8 z "},"a":{"ha":894,"x_min":0,"x_max":0,"o":"m 449 1036 l 36 0 l 186 0 l 249 153 l 642 153 l 704 0 l 858 0 z m 300 286 l 444 657 l 590 286 z "},"b":{"ha":906,"x_min":0,"x_max":0,"o":"m 826 332 b 653 624 826 463 751 574 b 701 772 683 667 701 717 b 454 1018 701 911 585 1018 l 106 1018 l 106 0 l 497 0 b 826 332 679 -1 826 153 z m 246 131 l 246 524 l 494 524 b 674 329 583 524 674 463 b 493 131 674 193 578 131 z m 457 885 b 567 775 515 885 567 831 b 440 656 567 683 500 656 l 246 656 l 246 885 z "},"c":{"ha":1018,"x_min":0,"x_max":0,"o":"m 853 238 b 581 125 785 168 688 125 b 217 508 371 125 217 310 b 581 893 217 718 382 893 b 850 788 685 893 781 854 l 908 921 b 588 1032 821 990 708 1032 b 64 508 297 1032 64 783 b 588 -14 64 217 313 -14 b 953 135 729 -14 860 43 z "},"d":{"ha":1017,"x_min":0,"x_max":0,"o":"m 106 1018 l 106 0 l 443 0 b 956 508 726 0 956 239 b 443 1018 956 793 713 1019 z m 246 131 l 246 886 l 375 886 b 806 508 651 886 806 725 b 375 131 806 257 600 131 z "},"e":{"ha":711,"x_min":0,"x_max":0,"o":"m 244 335 l 551 335 l 565 475 l 244 475 l 244 881 l 621 881 l 607 1018 l 104 1018 l 104 0 l 607 0 l 621 136 l 244 136 z "},"f":{"ha":696,"x_min":0,"x_max":0,"o":"m 243 881 l 619 881 l 606 1018 l 104 1018 l 104 0 l 243 0 l 243 335 l 519 335 l 533 475 l 243 475 z "},"g":{"ha":1108,"x_min":0,"x_max":0,"o":"m 525 600 l 514 469 l 851 469 l 851 226 b 582 118 779 156 681 118 b 201 508 371 118 201 306 b 582 899 201 719 382 899 b 849 785 685 899 781 853 l 908 921 b 588 1032 819 992 711 1032 b 64 510 297 1033 64 785 b 588 -14 64 217 311 -14 b 999 188 756 -14 904 68 l 999 601 b 525 600 842 601 682 600 z "},"h":{"ha":875,"x_min":0,"x_max":0,"o":"m 632 1018 l 632 471 l 246 471 l 246 1018 l 106 1018 l 106 0 l 246 0 l 246 342 l 632 342 l 632 0 l 772 0 l 772 1018 z "},"i":{"ha":382,"x_min":0,"x_max":0,"o":"m 261 1018 l 121 1018 l 121 0 l 261 0 z "},"j":{"ha":425,"x_min":0,"x_max":0,"o":"m 179 1018 l 179 69 b -7 -133 179 -33 94 -133 l -7 -256 b 318 68 182 -243 314 -107 l 318 1018 z "},"k":{"ha":781,"x_min":0,"x_max":0,"o":"m 335 394 l 563 0 l 711 0 l 411 522 l 700 1018 l 556 1018 l 244 479 l 244 1018 l 104 1018 l 104 0 l 244 0 l 244 244 z "},"l":{"ha":724,"x_min":0,"x_max":0,"o":"m 244 136 l 244 1018 l 104 1018 l 104 0 l 649 0 l 663 136 z "},"m":{"ha":1083,"x_min":0,"x_max":0,"o":"m 794 1033 l 542 358 l 292 1033 l 74 0 l 213 0 l 325 549 l 531 -8 l 753 576 l 872 0 l 1014 0 z "},"n":{"ha":935,"x_min":0,"x_max":0,"o":"m 828 -19 l 828 1018 l 688 1018 l 688 371 l 106 1031 l 106 0 l 246 0 l 246 635 z "},"o":{"ha":1176,"x_min":0,"x_max":0,"o":"m 590 -18 b 1114 507 861 -18 1114 214 b 590 1031 1114 781 883 1031 b 64 507 315 1031 64 803 b 590 -18 64 232 297 -18 z m 201 507 b 590 906 201 708 376 906 b 976 507 790 906 976 721 b 590 107 976 313 808 107 b 201 507 389 107 201 292 z "},"p":{"ha":843,"x_min":0,"x_max":0,"o":"m 760 681 b 422 1018 760 874 593 1018 l 104 1018 l 104 0 l 244 0 l 244 342 l 422 342 b 760 681 617 342 760 507 z m 244 471 l 244 889 l 425 889 b 624 681 539 889 624 785 b 422 471 624 569 532 471 z "},"q":{"ha":1204,"x_min":0,"x_max":0,"o":"m 1113 42 l 997 182 b 1111 507 1068 271 1111 385 b 586 1031 1111 799 864 1031 b 63 507 293 1031 63 785 b 586 -18 63 215 310 -18 b 892 78 700 -18 804 18 l 1001 -51 z m 586 111 b 200 507 374 111 200 306 b 586 901 200 719 385 901 b 974 507 800 901 974 708 b 910 293 974 428 953 353 l 706 535 l 632 383 l 799 189 b 586 111 750 146 664 111 z "},"r":{"ha":838,"x_min":0,"x_max":0,"o":"m 761 0 l 601 394 b 760 681 706 467 760 571 b 422 1018 760 874 594 1018 l 106 1018 l 106 0 l 246 0 l 246 342 l 425 342 b 460 344 438 342 449 343 l 604 0 z m 246 471 l 246 889 l 424 889 b 622 681 539 889 622 786 b 424 471 622 567 533 471 z "},"s":{"ha":793,"x_min":0,"x_max":0,"o":"m 403 -8 b 713 278 544 -8 713 103 b 265 751 713 518 265 589 b 426 901 265 838 343 901 b 597 824 482 901 546 871 l 693 925 b 425 1029 626 986 524 1029 b 122 754 261 1029 122 932 b 571 260 122 471 571 460 b 408 122 571 219 531 122 b 156 292 285 122 226 193 l 35 208 b 403 -8 115 93 247 -8 z "},"t":{"ha":801,"x_min":0,"x_max":0,"o":"m 739 897 l 725 1018 l 76 1018 l 63 897 l 331 897 l 331 0 l 471 0 l 471 897 z "},"u":{"ha":871,"x_min":0,"x_max":0,"o":"m 763 1018 l 626 1018 l 626 317 b 433 126 628 214 532 126 b 250 317 329 126 250 219 l 250 1018 l 110 1018 l 110 314 b 435 -17 107 128 267 -17 b 763 301 621 -17 764 138 z "},"v":{"ha":942,"x_min":0,"x_max":0,"o":"m 468 -10 l 876 1018 l 740 1018 l 478 333 l 210 1018 l 63 1018 z "},"w":{"ha":1281,"x_min":0,"x_max":0,"o":"m 840 -10 l 1251 1018 l 1104 1018 l 843 363 l 658 825 l 474 363 l 213 1018 l 63 1018 l 472 -10 l 657 457 z "},"x":{"ha":851,"x_min":0,"x_max":0,"o":"m 799 0 l 501 514 l 792 1018 l 632 1018 l 421 651 l 210 1018 l 49 1018 l 342 510 l 47 0 l 206 0 l 421 372 l 636 0 z "},"y":{"ha":836,"x_min":0,"x_max":0,"o":"m 793 1018 l 633 1018 l 425 657 l 217 1018 l 56 1018 l 353 503 l 353 0 l 493 0 l 493 500 z "},"z":{"ha":861,"x_min":0,"x_max":0,"o":"m 782 1018 l 129 1018 l 115 881 l 549 881 l 81 0 l 729 0 l 743 136 l 314 136 z "},"à":{"ha":894,"x_min":0,"x_max":0,"o":"m 235 1211 l 479 1047 l 540 1100 l 335 1294 z m 449 1036 l 36 0 l 186 0 l 249 153 l 642 153 l 704 0 l 858 0 z m 300 286 l 444 657 l 590 286 z "},"á":{"ha":894,"x_min":0,"x_max":0,"o":"m 560 1294 l 353 1100 l 417 1047 l 658 1211 z m 449 1036 l 36 0 l 186 0 l 249 153 l 642 153 l 704 0 l 858 0 z m 300 286 l 444 657 l 590 286 z "},"â":{"ha":894,"x_min":0,"x_max":0,"o":"m 653 1131 l 447 1294 l 243 1131 l 303 1078 l 447 1176 l 590 1078 z m 449 1036 l 36 0 l 186 0 l 249 153 l 642 153 l 704 0 l 858 0 z m 300 286 l 444 657 l 590 286 z "},"ã":{"ha":894,"x_min":0,"x_max":0,"o":"m 317 1083 b 374 1119 329 1099 347 1119 b 518 1085 424 1119 464 1085 b 649 1150 568 1085 614 1111 l 582 1211 b 518 1175 568 1194 544 1175 b 374 1211 471 1175 426 1211 b 246 1143 322 1211 282 1182 z m 449 1036 l 36 0 l 186 0 l 249 153 l 642 153 l 704 0 l 858 0 z m 300 286 l 444 657 l 590 286 z "},"ä":{"ha":894,"x_min":0,"x_max":0,"o":"m 313 1244 b 238 1169 271 1244 238 1211 b 313 1096 238 1129 271 1096 b 388 1169 354 1096 388 1129 b 313 1244 388 1211 354 1244 z m 581 1244 b 506 1169 539 1244 506 1211 b 581 1096 506 1129 539 1096 b 656 1169 624 1096 656 1129 b 581 1244 656 1211 624 1244 z m 449 1036 l 36 0 l 186 0 l 249 153 l 642 153 l 704 0 l 858 0 z m 300 286 l 444 657 l 590 286 z "},"å":{"ha":894,"x_min":0,"x_max":0,"o":"m 447 1021 l 36 0 l 186 0 l 249 153 l 642 153 l 704 0 l 858 0 z m 447 1022 b 588 1161 522 1022 588 1083 b 447 1301 588 1236 526 1301 b 308 1161 374 1301 308 1240 b 447 1022 308 1088 369 1022 z m 304 293 l 444 653 l 585 293 z m 382 1161 b 447 1228 382 1196 408 1228 b 514 1161 482 1228 514 1199 b 447 1096 514 1126 485 1096 b 382 1161 411 1096 383 1122 z "},"è":{"ha":711,"x_min":0,"x_max":0,"o":"m 244 335 l 551 335 l 565 475 l 244 475 l 244 881 l 621 881 l 607 1018 l 104 1018 l 104 0 l 607 0 l 621 136 l 244 136 z m 203 1211 l 447 1047 l 510 1100 l 303 1294 z "},"é":{"ha":711,"x_min":0,"x_max":0,"o":"m 244 335 l 551 335 l 565 475 l 244 475 l 244 881 l 621 881 l 607 1018 l 104 1018 l 104 0 l 607 0 l 621 136 l 244 136 z m 401 1294 l 196 1100 l 258 1047 l 501 1211 z "},"ê":{"ha":711,"x_min":0,"x_max":0,"o":"m 244 335 l 551 335 l 565 475 l 244 475 l 244 881 l 621 881 l 607 1018 l 104 1018 l 104 0 l 607 0 l 621 136 l 244 136 z m 561 1126 l 356 1292 l 151 1126 l 211 1075 l 356 1172 l 499 1075 z "},"ë":{"ha":711,"x_min":0,"x_max":0,"o":"m 244 335 l 551 335 l 565 475 l 244 475 l 244 881 l 621 881 l 607 1018 l 104 1018 l 104 0 l 607 0 l 621 136 l 244 136 z m 221 1244 b 146 1169 179 1244 146 1211 b 221 1096 146 1129 179 1096 b 296 1169 263 1096 296 1129 b 221 1244 296 1211 263 1244 z m 489 1244 b 414 1169 447 1244 414 1211 b 489 1096 414 1129 447 1096 b 564 1169 531 1096 564 1129 b 489 1244 564 1211 531 1244 z "},"ì":{"ha":382,"x_min":0,"x_max":0,"o":"m 261 1018 l 121 1018 l 121 0 l 261 0 z m 11 1211 l 256 1047 l 317 1100 l 111 1294 z "},"í":{"ha":382,"x_min":0,"x_max":0,"o":"m 261 1018 l 121 1018 l 121 0 l 261 0 z m 274 1294 l 68 1100 l 131 1047 l 374 1211 z "},"î":{"ha":382,"x_min":0,"x_max":0,"o":"m 261 1018 l 121 1018 l 121 0 l 261 0 z m 394 1126 l 190 1292 l -15 1126 l 46 1075 l 190 1172 l 333 1075 z "},"ï":{"ha":382,"x_min":0,"x_max":0,"o":"m 261 1018 l 121 1018 l 121 0 l 261 0 z m 57 1244 b -18 1169 15 1244 -18 1211 b 57 1096 -18 1129 15 1096 b 132 1169 99 1096 132 1129 b 57 1244 132 1211 99 1244 z m 324 1244 b 250 1169 283 1244 250 1211 b 324 1096 250 1129 283 1096 b 400 1169 367 1096 400 1129 b 324 1244 400 1211 367 1244 z "},"ñ":{"ha":935,"x_min":0,"x_max":0,"o":"m 336 1083 b 394 1119 350 1099 367 1119 b 538 1085 443 1119 483 1085 b 668 1150 588 1085 633 1111 l 601 1211 b 538 1175 588 1194 564 1175 b 394 1211 490 1175 447 1211 b 267 1143 343 1211 301 1182 z m 828 -19 l 828 1018 l 688 1018 l 688 371 l 106 1031 l 106 0 l 246 0 l 246 635 z "},"ò":{"ha":1176,"x_min":0,"x_max":0,"o":"m 435 1211 l 679 1047 l 740 1100 l 535 1294 z m 590 -18 b 1114 507 861 -18 1114 214 b 590 1031 1114 781 883 1031 b 64 507 315 1031 64 803 b 590 -18 64 232 297 -18 z m 201 507 b 590 906 201 708 376 906 b 976 507 790 906 976 721 b 590 107 976 313 808 107 b 201 507 389 107 201 292 z "},"ó":{"ha":1176,"x_min":0,"x_max":0,"o":"m 640 1294 l 435 1100 l 497 1047 l 740 1211 z m 590 -18 b 1114 507 861 -18 1114 214 b 590 1031 1114 781 883 1031 b 64 507 315 1031 64 803 b 590 -18 64 232 297 -18 z m 201 507 b 590 906 201 708 376 906 b 976 507 790 906 976 721 b 590 107 976 313 808 107 b 201 507 389 107 201 292 z "},"ô":{"ha":1176,"x_min":0,"x_max":0,"o":"m 793 1126 l 588 1292 l 383 1126 l 443 1075 l 588 1172 l 731 1075 z m 590 -18 b 1114 507 861 -18 1114 214 b 590 1031 1114 781 883 1031 b 64 507 315 1031 64 803 b 590 -18 64 232 297 -18 z m 201 507 b 590 906 201 708 376 906 b 976 507 790 906 976 721 b 590 107 976 313 808 107 b 201 507 389 107 201 292 z "},"õ":{"ha":1176,"x_min":0,"x_max":0,"o":"m 457 1083 b 514 1119 471 1099 488 1119 b 658 1085 564 1119 604 1085 b 789 1150 708 1085 754 1111 l 722 1211 b 658 1175 708 1194 685 1175 b 514 1211 611 1175 568 1211 b 388 1143 464 1211 422 1182 z m 590 -18 b 1114 507 861 -18 1114 214 b 590 1031 1114 781 883 1031 b 64 507 315 1031 64 803 b 590 -18 64 232 297 -18 z m 201 507 b 590 906 201 708 376 906 b 976 507 790 906 976 721 b 590 107 976 313 808 107 b 201 507 389 107 201 292 z "},"ö":{"ha":1176,"x_min":0,"x_max":0,"o":"m 456 1244 b 379 1169 413 1244 379 1211 b 456 1096 379 1129 413 1096 b 529 1169 496 1096 529 1129 b 456 1244 529 1211 496 1244 z m 722 1244 b 649 1169 681 1244 649 1211 b 722 1096 649 1129 681 1096 b 799 1169 765 1096 799 1129 b 722 1244 799 1211 765 1244 z m 590 -18 b 1114 507 861 -18 1114 214 b 590 1031 1114 781 883 1031 b 64 507 315 1031 64 803 b 590 -18 64 232 297 -18 z m 201 507 b 590 906 201 708 376 906 b 976 507 790 906 976 721 b 590 107 976 313 808 107 b 201 507 389 107 201 292 z "},"ù":{"ha":871,"x_min":0,"x_max":0,"o":"m 239 1211 l 483 1047 l 546 1100 l 339 1294 z m 763 1018 l 626 1018 l 626 317 b 433 126 628 214 532 126 b 250 317 329 126 250 219 l 250 1018 l 110 1018 l 110 314 b 435 -17 107 128 267 -17 b 763 301 621 -17 764 138 z "},"ú":{"ha":871,"x_min":0,"x_max":0,"o":"m 528 1294 l 322 1100 l 385 1047 l 628 1211 z m 763 1018 l 626 1018 l 626 317 b 433 126 628 214 532 126 b 250 317 329 126 250 219 l 250 1018 l 110 1018 l 110 314 b 435 -17 107 128 267 -17 b 763 301 621 -17 764 138 z "},"û":{"ha":871,"x_min":0,"x_max":0,"o":"m 640 1126 l 435 1292 l 231 1126 l 290 1075 l 435 1172 l 578 1075 z m 763 1018 l 626 1018 l 626 317 b 433 126 628 214 532 126 b 250 317 329 126 250 219 l 250 1018 l 110 1018 l 110 314 b 435 -17 107 128 267 -17 b 763 301 621 -17 764 138 z "},"ü":{"ha":871,"x_min":0,"x_max":0,"o":"m 300 1244 b 224 1169 257 1244 224 1211 b 300 1096 224 1129 257 1096 b 374 1169 340 1096 374 1129 b 300 1244 374 1211 340 1244 z m 567 1244 b 493 1169 525 1244 493 1211 b 567 1096 493 1129 525 1096 b 643 1169 610 1096 643 1129 b 567 1244 643 1211 610 1244 z m 763 1018 l 626 1018 l 626 317 b 433 126 628 214 532 126 b 250 317 329 126 250 219 l 250 1018 l 110 1018 l 110 314 b 435 -17 107 128 267 -17 b 763 301 621 -17 764 138 z "},"ý":{"ha":836,"x_min":0,"x_max":0,"o":"m 793 1018 l 633 1018 l 425 657 l 217 1018 l 56 1018 l 353 503 l 353 0 l 493 0 l 493 500 z m 476 1294 l 271 1100 l 333 1047 l 576 1211 z "},"ÿ":{"ha":836,"x_min":0,"x_max":0,"o":"m 793 1018 l 633 1018 l 425 657 l 217 1018 l 56 1018 l 353 503 l 353 0 l 493 0 l 493 500 z m 290 1244 b 214 1169 247 1244 214 1211 b 290 1096 214 1129 247 1096 b 364 1169 332 1096 364 1129 b 290 1244 364 1211 332 1244 z m 557 1244 b 483 1169 517 1244 483 1211 b 557 1096 483 1129 517 1096 b 633 1169 600 1096 633 1129 b 557 1244 633 1211 600 1244 z "},"š":{"ha":793,"x_min":0,"x_max":0,"o":"m 568 1292 l 425 1196 l 279 1292 l 219 1242 l 425 1075 l 629 1242 z m 403 -8 b 713 278 544 -8 713 103 b 265 751 713 518 265 589 b 426 901 265 838 343 901 b 597 824 482 901 546 871 l 693 925 b 425 1029 626 986 524 1029 b 122 754 261 1029 122 932 b 571 260 122 471 571 460 b 408 122 571 219 531 122 b 156 292 285 122 226 193 l 35 208 b 403 -8 115 93 247 -8 z "},"ž":{"ha":864,"x_min":0,"x_max":0,"o":"m 776 1018 l 124 1018 l 110 881 l 543 881 l 75 0 l 724 0 l 738 136 l 308 136 z m 601 1292 l 458 1196 l 314 1292 l 254 1242 l 458 1075 l 664 1242 z "},"Ą":{"ha":894,"x_min":0,"x_max":0,"o":"m 858 0 l 449 1036 l 36 0 l 186 0 l 249 153 l 642 153 l 704 0 l 850 0 b 675 -160 761 -12 675 -68 b 863 -318 675 -260 781 -318 l 863 -244 b 743 -160 814 -243 743 -217 b 858 -78 743 -101 814 -78 z m 304 293 l 444 657 l 585 293 z "},"ą":{"ha":894,"x_min":0,"x_max":0,"o":"m 858 0 l 449 1036 l 36 0 l 186 0 l 249 153 l 642 153 l 704 0 l 850 0 b 675 -160 761 -12 675 -68 b 863 -318 675 -260 781 -318 l 863 -244 b 743 -160 814 -243 743 -217 b 858 -78 743 -101 814 -78 z m 304 293 l 444 657 l 585 293 z "},"Ľ":{"ha":808,"x_min":0,"x_max":0,"o":"m 244 136 l 244 1018 l 104 1018 l 104 0 l 649 0 l 663 136 z m 731 1018 b 651 939 688 1018 651 982 b 718 860 651 899 681 867 b 658 811 703 831 679 815 l 658 768 b 811 939 739 786 811 871 b 731 1018 811 982 776 1018 z "},"ľ":{"ha":808,"x_min":0,"x_max":0,"o":"m 244 136 l 244 1018 l 104 1018 l 104 0 l 649 0 l 663 136 z m 731 1018 b 651 939 688 1018 651 982 b 718 860 651 899 681 867 b 658 811 703 831 679 815 l 658 768 b 811 939 739 786 811 871 b 731 1018 811 982 776 1018 z "},"Ś":{"ha":793,"x_min":0,"x_max":0,"o":"m 521 1294 l 315 1100 l 378 1047 l 621 1211 z m 403 -8 b 713 278 544 -8 713 103 b 265 751 713 518 265 589 b 426 901 265 838 343 901 b 597 824 482 901 546 871 l 693 925 b 425 1029 626 986 524 1029 b 122 754 261 1029 122 932 b 571 260 122 471 571 460 b 408 122 571 219 531 122 b 156 292 285 122 226 193 l 35 208 b 403 -8 115 93 247 -8 z "},"ś":{"ha":793,"x_min":0,"x_max":0,"o":"m 521 1294 l 315 1100 l 378 1047 l 621 1211 z m 403 -8 b 713 278 544 -8 713 103 b 265 751 713 518 265 589 b 426 901 265 838 343 901 b 597 824 482 901 546 871 l 693 925 b 425 1029 626 986 524 1029 b 122 754 261 1029 122 932 b 571 260 122 471 571 460 b 408 122 571 219 531 122 b 156 292 285 122 226 193 l 35 208 b 403 -8 115 93 247 -8 z "},"Ť":{"ha":801,"x_min":0,"x_max":0,"o":"m 739 897 l 725 1018 l 76 1018 l 63 897 l 331 897 l 331 0 l 471 0 l 471 897 z m 543 1292 l 400 1196 l 256 1292 l 196 1242 l 400 1075 l 606 1242 z "},"ť":{"ha":1061,"x_min":0,"x_max":0,"o":"m 739 897 l 725 1018 l 76 1018 l 63 897 l 331 897 l 331 0 l 471 0 l 471 897 z m 931 1029 b 851 949 888 1029 851 993 b 918 871 851 910 881 876 b 857 821 903 840 879 825 l 857 778 b 1011 949 939 796 1011 882 b 931 1029 1011 993 976 1029 z "},"Ź":{"ha":861,"x_min":0,"x_max":0,"o":"m 782 1018 l 129 1018 l 115 881 l 549 881 l 81 0 l 729 0 l 743 136 l 314 136 z m 479 1294 l 274 1100 l 336 1047 l 579 1211 z "},"ź":{"ha":861,"x_min":0,"x_max":0,"o":"m 782 1018 l 129 1018 l 115 881 l 549 881 l 81 0 l 729 0 l 743 136 l 314 136 z m 479 1294 l 274 1100 l 336 1047 l 579 1211 z "},"Ż":{"ha":861,"x_min":0,"x_max":0,"o":"m 782 1018 l 129 1018 l 115 881 l 549 881 l 81 0 l 729 0 l 743 136 l 314 136 z m 506 1156 b 426 1236 506 1200 472 1236 b 347 1156 383 1236 347 1200 b 426 1076 347 1113 383 1076 b 506 1156 472 1076 506 1113 z "},"ż":{"ha":861,"x_min":0,"x_max":0,"o":"m 782 1018 l 129 1018 l 115 881 l 549 881 l 81 0 l 729 0 l 743 136 l 314 136 z m 506 1156 b 426 1236 506 1200 472 1236 b 347 1156 383 1236 347 1200 b 426 1076 347 1113 383 1076 b 506 1156 472 1076 506 1113 z "},"Ŕ":{"ha":838,"x_min":0,"x_max":0,"o":"m 474 1294 l 267 1100 l 331 1047 l 574 1211 z m 761 0 l 601 394 b 760 681 706 467 760 571 b 422 1018 760 874 594 1018 l 106 1018 l 106 0 l 246 0 l 246 342 l 425 342 b 460 344 438 342 449 343 l 604 0 z m 246 471 l 246 889 l 424 889 b 622 681 539 889 622 786 b 424 471 622 567 533 471 z "},"ŕ":{"ha":838,"x_min":0,"x_max":0,"o":"m 474 1294 l 267 1100 l 331 1047 l 574 1211 z m 761 0 l 601 394 b 760 681 706 467 760 571 b 422 1018 760 874 594 1018 l 106 1018 l 106 0 l 246 0 l 246 342 l 425 342 b 460 344 438 342 449 343 l 604 0 z m 246 471 l 246 889 l 424 889 b 622 681 539 889 622 786 b 424 471 622 567 533 471 z "},"Ă":{"ha":894,"x_min":0,"x_max":0,"o":"m 539 1246 b 449 1156 538 1196 497 1156 b 357 1246 397 1156 357 1196 l 274 1246 b 449 1067 278 1146 354 1067 b 621 1246 544 1067 621 1153 z m 449 1036 l 36 0 l 186 0 l 249 153 l 642 153 l 704 0 l 858 0 z m 300 286 l 444 657 l 590 286 z "},"ă":{"ha":894,"x_min":0,"x_max":0,"o":"m 539 1246 b 449 1156 538 1196 497 1156 b 357 1246 397 1156 357 1196 l 274 1246 b 449 1067 278 1146 354 1067 b 621 1246 544 1067 621 1153 z m 449 1036 l 36 0 l 186 0 l 249 153 l 642 153 l 704 0 l 858 0 z m 300 286 l 444 657 l 590 286 z "},"Ĺ":{"ha":724,"x_min":0,"x_max":0,"o":"m 244 136 l 244 1018 l 104 1018 l 104 0 l 649 0 l 663 136 z m 421 1294 l 215 1100 l 278 1047 l 521 1211 z "},"ĺ":{"ha":724,"x_min":0,"x_max":0,"o":"m 244 136 l 244 1018 l 104 1018 l 104 0 l 649 0 l 663 136 z m 421 1294 l 215 1100 l 278 1047 l 521 1211 z "},"Ć":{"ha":1018,"x_min":0,"x_max":0,"o":"m 629 1294 l 424 1100 l 486 1047 l 729 1211 z m 853 238 b 581 125 785 168 688 125 b 217 508 371 125 217 310 b 581 893 217 718 382 893 b 850 788 685 893 781 854 l 908 921 b 588 1032 821 990 708 1032 b 64 508 297 1032 64 783 b 588 -14 64 217 313 -14 b 953 135 729 -14 860 43 z "},"ć":{"ha":1018,"x_min":0,"x_max":0,"o":"m 629 1294 l 424 1100 l 486 1047 l 729 1211 z m 853 238 b 581 125 785 168 688 125 b 217 508 371 125 217 310 b 581 893 217 718 382 893 b 850 788 685 893 781 854 l 908 921 b 588 1032 821 990 708 1032 b 64 508 297 1032 64 783 b 588 -14 64 217 313 -14 b 953 135 729 -14 860 43 z "},"Č":{"ha":1018,"x_min":0,"x_max":0,"o":"m 719 1292 l 576 1196 l 432 1292 l 371 1242 l 576 1075 l 782 1242 z m 853 238 b 581 125 785 168 688 125 b 217 508 371 125 217 310 b 581 893 217 718 382 893 b 850 788 685 893 781 854 l 908 921 b 588 1032 821 990 708 1032 b 64 508 297 1032 64 783 b 588 -14 64 217 313 -14 b 953 135 729 -14 860 43 z "},"č":{"ha":1018,"x_min":0,"x_max":0,"o":"m 719 1292 l 576 1196 l 432 1292 l 371 1242 l 576 1075 l 782 1242 z m 853 238 b 581 125 785 168 688 125 b 217 508 371 125 217 310 b 581 893 217 718 382 893 b 850 788 685 893 781 854 l 908 921 b 588 1032 821 990 708 1032 b 64 508 297 1032 64 783 b 588 -14 64 217 313 -14 b 953 135 729 -14 860 43 z "},"Ě":{"ha":711,"x_min":0,"x_max":0,"o":"m 244 335 l 551 335 l 565 475 l 244 475 l 244 881 l 621 881 l 607 1018 l 104 1018 l 104 0 l 607 0 l 621 136 l 244 136 z m 515 1292 l 371 1196 l 226 1292 l 167 1242 l 371 1075 l 576 1242 z "},"ě":{"ha":711,"x_min":0,"x_max":0,"o":"m 244 335 l 551 335 l 565 475 l 244 475 l 244 881 l 621 881 l 607 1018 l 104 1018 l 104 0 l 607 0 l 621 136 l 244 136 z m 515 1292 l 371 1196 l 226 1292 l 167 1242 l 371 1075 l 576 1242 z "},"Ď":{"ha":1017,"x_min":0,"x_max":0,"o":"m 565 1292 l 421 1196 l 276 1292 l 217 1242 l 421 1075 l 626 1242 z m 106 1018 l 106 0 l 443 0 b 956 508 726 0 956 239 b 443 1018 956 793 713 1019 z m 246 131 l 246 886 l 375 886 b 806 508 651 886 806 725 b 375 131 806 257 600 131 z "},"ď":{"ha":1017,"x_min":0,"x_max":0,"o":"m 565 1292 l 421 1196 l 276 1292 l 217 1242 l 421 1075 l 626 1242 z m 106 1018 l 106 0 l 443 0 b 956 508 726 0 956 239 b 443 1018 956 793 713 1019 z m 246 131 l 246 886 l 375 886 b 806 508 651 886 806 725 b 375 131 806 257 600 131 z "},"Ń":{"ha":935,"x_min":0,"x_max":0,"o":"m 521 1294 l 314 1100 l 378 1047 l 619 1211 z m 828 -19 l 828 1018 l 688 1018 l 688 371 l 106 1031 l 106 0 l 246 0 l 246 635 z "},"ń":{"ha":935,"x_min":0,"x_max":0,"o":"m 521 1294 l 314 1100 l 378 1047 l 619 1211 z m 828 -19 l 828 1018 l 688 1018 l 688 371 l 106 1031 l 106 0 l 246 0 l 246 635 z "},"Ň":{"ha":935,"x_min":0,"x_max":0,"o":"m 583 1297 l 439 1201 l 294 1297 l 235 1247 l 439 1081 l 644 1247 z m 828 -19 l 828 1018 l 688 1018 l 688 371 l 106 1031 l 106 0 l 246 0 l 246 635 z "},"ň":{"ha":935,"x_min":0,"x_max":0,"o":"m 583 1297 l 439 1201 l 294 1297 l 235 1247 l 439 1081 l 644 1247 z m 828 -19 l 828 1018 l 688 1018 l 688 371 l 106 1031 l 106 0 l 246 0 l 246 635 z "},"Ő":{"ha":1176,"x_min":0,"x_max":0,"o":"m 571 1294 l 364 1100 l 428 1047 l 669 1211 z m 799 1294 l 592 1100 l 654 1047 l 897 1211 z m 590 -18 b 1114 507 861 -18 1114 214 b 590 1031 1114 781 883 1031 b 64 507 315 1031 64 803 b 590 -18 64 232 297 -18 z m 201 507 b 590 906 201 708 376 906 b 976 507 790 906 976 721 b 590 107 976 313 808 107 b 201 507 389 107 201 292 z "},"ő":{"ha":1176,"x_min":0,"x_max":0,"o":"m 571 1294 l 364 1100 l 428 1047 l 669 1211 z m 799 1294 l 592 1100 l 654 1047 l 897 1211 z m 590 -18 b 1114 507 861 -18 1114 214 b 590 1031 1114 781 883 1031 b 64 507 315 1031 64 803 b 590 -18 64 232 297 -18 z m 201 507 b 590 906 201 708 376 906 b 976 507 790 906 976 721 b 590 107 976 313 808 107 b 201 507 389 107 201 292 z "},"Ř":{"ha":838,"x_min":0,"x_max":0,"o":"m 503 1292 l 360 1196 l 215 1292 l 156 1242 l 360 1075 l 565 1242 z m 761 0 l 601 394 b 760 681 706 467 760 571 b 422 1018 760 874 594 1018 l 106 1018 l 106 0 l 246 0 l 246 342 l 425 342 b 460 344 438 342 449 343 l 604 0 z m 246 471 l 246 889 l 424 889 b 622 681 539 889 622 786 b 424 471 622 567 533 471 z "},"ř":{"ha":838,"x_min":0,"x_max":0,"o":"m 503 1292 l 360 1196 l 215 1292 l 156 1242 l 360 1075 l 565 1242 z m 761 0 l 601 394 b 760 681 706 467 760 571 b 422 1018 760 874 594 1018 l 106 1018 l 106 0 l 246 0 l 246 342 l 425 342 b 460 344 438 342 449 343 l 604 0 z m 246 471 l 246 889 l 424 889 b 622 681 539 889 622 786 b 424 471 622 567 533 471 z "},"Ů":{"ha":871,"x_min":0,"x_max":0,"o":"m 435 1022 b 574 1163 508 1022 574 1083 b 435 1301 574 1236 513 1301 b 294 1163 360 1301 294 1240 b 435 1022 294 1088 356 1022 z m 368 1163 b 435 1228 368 1196 396 1228 b 500 1163 469 1228 500 1200 b 435 1096 500 1128 472 1096 b 368 1163 399 1096 369 1124 z m 763 1018 l 626 1018 l 626 317 b 433 126 628 214 532 126 b 250 317 329 126 250 219 l 250 1018 l 110 1018 l 110 314 b 435 -17 107 128 267 -17 b 763 301 621 -17 764 138 z "},"ů":{"ha":871,"x_min":0,"x_max":0,"o":"m 435 1022 b 574 1163 508 1022 574 1083 b 435 1301 574 1236 513 1301 b 294 1163 360 1301 294 1240 b 435 1022 294 1088 356 1022 z m 368 1163 b 435 1228 368 1196 396 1228 b 500 1163 469 1228 500 1200 b 435 1096 500 1128 472 1096 b 368 1163 399 1096 369 1124 z m 763 1018 l 626 1018 l 626 317 b 433 126 628 214 532 126 b 250 317 329 126 250 219 l 250 1018 l 110 1018 l 110 314 b 435 -17 107 128 267 -17 b 763 301 621 -17 764 138 z "},"Ű":{"ha":871,"x_min":0,"x_max":0,"o":"m 400 1294 l 194 1101 l 257 1047 l 500 1213 z m 628 1294 l 422 1101 l 483 1047 l 728 1213 z m 763 1018 l 626 1018 l 626 317 b 433 126 628 214 532 126 b 250 317 329 126 250 219 l 250 1018 l 110 1018 l 110 314 b 435 -17 107 128 267 -17 b 763 301 621 -17 764 138 z "},"ű":{"ha":871,"x_min":0,"x_max":0,"o":"m 400 1294 l 194 1101 l 257 1047 l 500 1213 z m 628 1294 l 422 1101 l 483 1047 l 728 1213 z m 763 1018 l 626 1018 l 626 317 b 433 126 628 214 532 126 b 250 317 329 126 250 219 l 250 1018 l 110 1018 l 110 314 b 435 -17 107 128 267 -17 b 763 301 621 -17 764 138 z "},"Ĥ":{"ha":875,"x_min":0,"x_max":0,"o":"m 643 1126 l 438 1292 l 233 1126 l 293 1075 l 438 1172 l 581 1075 z m 632 1018 l 632 471 l 246 471 l 246 1018 l 106 1018 l 106 0 l 246 0 l 246 342 l 632 342 l 632 0 l 772 0 l 772 1018 z "},"İ":{"ha":382,"x_min":0,"x_max":0,"o":"m 261 1018 l 121 1018 l 121 0 l 261 0 z m 269 1156 b 190 1236 269 1200 236 1236 b 111 1156 147 1236 111 1200 b 190 1076 111 1113 147 1076 b 269 1156 236 1076 269 1113 z "},"Ğ":{"ha":1108,"x_min":0,"x_max":0,"o":"m 669 1246 b 579 1156 668 1196 628 1156 b 488 1246 528 1156 488 1196 l 404 1246 b 579 1067 408 1146 485 1067 b 751 1246 675 1067 751 1153 z m 525 600 l 514 469 l 851 469 l 851 226 b 582 118 779 156 681 118 b 201 508 371 118 201 306 b 582 899 201 719 382 899 b 849 785 685 899 781 853 l 908 921 b 588 1032 819 992 711 1032 b 64 510 297 1033 64 785 b 588 -14 64 217 311 -14 b 999 188 756 -14 904 68 l 999 601 b 525 600 842 601 682 600 z "},"Ĵ":{"ha":425,"x_min":0,"x_max":0,"o":"m 461 1126 l 256 1292 l 51 1126 l 111 1075 l 256 1172 l 400 1075 z m 179 1018 l 179 69 b -7 -133 179 -33 94 -133 l -7 -256 b 318 68 182 -243 314 -107 l 318 1018 z "},"ğ":{"ha":1108,"x_min":0,"x_max":0,"o":"m 669 1246 b 579 1156 668 1196 628 1156 b 488 1246 528 1156 488 1196 l 404 1246 b 579 1067 408 1146 485 1067 b 751 1246 675 1067 751 1153 z m 525 600 l 514 469 l 851 469 l 851 226 b 582 118 779 156 681 118 b 201 508 371 118 201 306 b 582 899 201 719 382 899 b 849 785 685 899 781 853 l 908 921 b 588 1032 819 992 711 1032 b 64 510 297 1033 64 785 b 588 -14 64 217 311 -14 b 999 188 756 -14 904 68 l 999 601 b 525 600 842 601 682 600 z "},"ĵ":{"ha":425,"x_min":0,"x_max":0,"o":"m 461 1126 l 256 1292 l 51 1126 l 111 1075 l 256 1172 l 400 1075 z m 179 1018 l 179 69 b -7 -133 179 -33 94 -133 l -7 -256 b 318 68 182 -243 314 -107 l 318 1018 z "},"Ċ":{"ha":1018,"x_min":0,"x_max":0,"o":"m 653 1156 b 574 1236 653 1200 619 1236 b 494 1156 531 1236 494 1200 b 574 1076 494 1113 531 1076 b 653 1156 619 1076 653 1113 z m 853 238 b 581 125 785 168 688 125 b 217 508 371 125 217 310 b 581 893 217 718 382 893 b 850 788 685 893 781 854 l 908 921 b 588 1032 821 990 708 1032 b 64 508 297 1032 64 783 b 588 -14 64 217 313 -14 b 953 135 729 -14 860 43 z "},"Ĉ":{"ha":1018,"x_min":0,"x_max":0,"o":"m 797 1126 l 592 1292 l 388 1126 l 447 1075 l 592 1172 l 735 1075 z m 853 238 b 581 125 785 168 688 125 b 217 508 371 125 217 310 b 581 893 217 718 382 893 b 850 788 685 893 781 854 l 908 921 b 588 1032 821 990 708 1032 b 64 508 297 1032 64 783 b 588 -14 64 217 313 -14 b 953 135 729 -14 860 43 z "},"ċ":{"ha":1018,"x_min":0,"x_max":0,"o":"m 653 1156 b 574 1236 653 1200 619 1236 b 494 1156 531 1236 494 1200 b 574 1076 494 1113 531 1076 b 653 1156 619 1076 653 1113 z m 853 238 b 581 125 785 168 688 125 b 217 508 371 125 217 310 b 581 893 217 718 382 893 b 850 788 685 893 781 854 l 908 921 b 588 1032 821 990 708 1032 b 64 508 297 1032 64 783 b 588 -14 64 217 313 -14 b 953 135 729 -14 860 43 z "},"ĉ":{"ha":1018,"x_min":0,"x_max":0,"o":"m 797 1126 l 592 1292 l 388 1126 l 447 1075 l 592 1172 l 735 1075 z m 853 238 b 581 125 785 168 688 125 b 217 508 371 125 217 310 b 581 893 217 718 382 893 b 850 788 685 893 781 854 l 908 921 b 588 1032 821 990 708 1032 b 64 508 297 1032 64 783 b 588 -14 64 217 313 -14 b 953 135 729 -14 860 43 z "},"Ġ":{"ha":1108,"x_min":0,"x_max":0,"o":"m 656 1156 b 576 1236 656 1200 622 1236 b 497 1156 533 1236 497 1200 b 576 1076 497 1113 533 1076 b 656 1156 622 1076 656 1113 z m 525 600 l 514 469 l 851 469 l 851 226 b 582 118 779 156 681 118 b 201 508 371 118 201 306 b 582 899 201 719 382 899 b 849 785 685 899 781 853 l 908 921 b 588 1032 819 992 711 1032 b 64 510 297 1033 64 785 b 588 -14 64 217 311 -14 b 999 188 756 -14 904 68 l 999 601 b 525 600 842 601 682 600 z "},"Ĝ":{"ha":1108,"x_min":0,"x_max":0,"o":"m 782 1126 l 578 1292 l 372 1126 l 432 1075 l 578 1172 l 721 1075 z m 525 600 l 514 469 l 851 469 l 851 226 b 582 118 779 156 681 118 b 201 508 371 118 201 306 b 582 899 201 719 382 899 b 849 785 685 899 781 853 l 908 921 b 588 1032 819 992 711 1032 b 64 510 297 1033 64 785 b 588 -14 64 217 311 -14 b 999 188 756 -14 904 68 l 999 601 b 525 600 842 601 682 600 z "},"ĝ":{"ha":1108,"x_min":0,"x_max":0,"o":"m 782 1126 l 578 1292 l 372 1126 l 432 1075 l 578 1172 l 721 1075 z m 525 600 l 514 469 l 851 469 l 851 226 b 582 118 779 156 681 118 b 201 508 371 118 201 306 b 582 899 201 719 382 899 b 849 785 685 899 781 853 l 908 921 b 588 1032 819 992 711 1032 b 64 510 297 1033 64 785 b 588 -14 64 217 311 -14 b 999 188 756 -14 904 68 l 999 601 b 525 600 842 601 682 600 z "},"Ŭ":{"ha":871,"x_min":0,"x_max":0,"o":"m 525 1246 b 435 1156 524 1196 483 1156 b 343 1246 383 1156 343 1196 l 260 1246 b 435 1067 264 1146 340 1067 b 607 1246 531 1067 607 1153 z m 763 1018 l 626 1018 l 626 317 b 433 126 628 214 532 126 b 250 317 329 126 250 219 l 250 1018 l 110 1018 l 110 314 b 435 -17 107 128 267 -17 b 763 301 621 -17 764 138 z "},"Ŝ":{"ha":793,"x_min":0,"x_max":0,"o":"m 626 1126 l 422 1292 l 217 1126 l 276 1075 l 422 1172 l 565 1075 z m 403 -8 b 713 278 544 -8 713 103 b 265 751 713 518 265 589 b 426 901 265 838 343 901 b 597 824 482 901 546 871 l 693 925 b 425 1029 626 986 524 1029 b 122 754 261 1029 122 932 b 571 260 122 471 571 460 b 408 122 571 219 531 122 b 156 292 285 122 226 193 l 35 208 b 403 -8 115 93 247 -8 z "},"ŭ":{"ha":871,"x_min":0,"x_max":0,"o":"m 525 1246 b 435 1156 524 1196 483 1156 b 343 1246 383 1156 343 1196 l 260 1246 b 435 1067 264 1146 340 1067 b 607 1246 531 1067 607 1153 z m 763 1018 l 626 1018 l 626 317 b 433 126 628 214 532 126 b 250 317 329 126 250 219 l 250 1018 l 110 1018 l 110 314 b 435 -17 107 128 267 -17 b 763 301 621 -17 764 138 z "},"ŝ":{"ha":793,"x_min":0,"x_max":0,"o":"m 626 1126 l 422 1292 l 217 1126 l 276 1075 l 422 1172 l 565 1075 z m 403 -8 b 713 278 544 -8 713 103 b 265 751 713 518 265 589 b 426 901 265 838 343 901 b 597 824 482 901 546 871 l 693 925 b 425 1029 626 986 524 1029 b 122 754 261 1029 122 932 b 571 260 122 471 571 460 b 408 122 571 219 531 122 b 156 292 285 122 226 193 l 35 208 b 403 -8 115 93 247 -8 z "},"ġ":{"ha":1108,"x_min":0,"x_max":0,"o":"m 656 1156 b 576 1236 656 1200 622 1236 b 497 1156 533 1236 497 1200 b 576 1076 497 1113 533 1076 b 656 1156 622 1076 656 1113 z m 525 600 l 514 469 l 851 469 l 851 226 b 582 118 779 156 681 118 b 201 508 371 118 201 306 b 582 899 201 719 382 899 b 849 785 685 899 781 853 l 908 921 b 588 1032 819 992 711 1032 b 64 510 297 1033 64 785 b 588 -14 64 217 311 -14 b 999 188 756 -14 904 68 l 999 601 b 525 600 842 601 682 600 z "},"ĥ":{"ha":875,"x_min":0,"x_max":0,"o":"m 643 1126 l 438 1292 l 233 1126 l 293 1075 l 438 1172 l 581 1075 z m 632 1018 l 632 471 l 246 471 l 246 1018 l 106 1018 l 106 0 l 246 0 l 246 342 l 632 342 l 632 0 l 772 0 l 772 1018 z "},"Ş":{"ha":793,"x_min":0,"x_max":0,"o":"m 378 -22 b 713 264 526 -25 713 81 b 265 751 713 521 265 589 b 419 904 265 851 347 900 b 597 824 479 906 550 863 l 693 925 b 425 1029 626 986 524 1029 b 122 756 261 1029 122 933 b 571 263 122 471 571 465 b 404 108 571 185 504 108 b 156 278 303 108 215 194 l 35 194 b 307 -8 97 103 194 22 l 307 -111 l 340 -111 b 463 -176 394 -111 463 -125 b 340 -243 463 -225 393 -243 l 290 -243 l 290 -317 l 343 -317 b 531 -175 419 -317 531 -271 b 378 -39 531 -96 449 -37 z "},"ş":{"ha":793,"x_min":0,"x_max":0,"o":"m 378 -22 b 713 264 526 -25 713 81 b 265 751 713 521 265 589 b 419 904 265 851 347 900 b 597 824 479 906 550 863 l 693 925 b 425 1029 626 986 524 1029 b 122 756 261 1029 122 933 b 571 263 122 471 571 465 b 404 108 571 185 504 108 b 156 278 303 108 215 194 l 35 194 b 307 -8 97 103 194 22 l 307 -111 l 340 -111 b 463 -176 394 -111 463 -125 b 340 -243 463 -225 393 -243 l 290 -243 l 290 -317 l 343 -317 b 531 -175 419 -317 531 -271 b 378 -39 531 -96 449 -37 z "},"Ħ":{"ha":875,"x_min":0,"x_max":0,"o":"m 840 824 l 771 824 l 771 1018 l 631 1018 l 631 824 l 244 824 l 244 1018 l 104 1018 l 104 824 l 35 824 l 35 714 l 104 714 l 104 0 l 244 0 l 244 342 l 631 342 l 631 0 l 771 0 l 771 714 l 840 714 z m 631 471 l 244 471 l 244 714 l 631 714 z "},"ħ":{"ha":875,"x_min":0,"x_max":0,"o":"m 840 824 l 771 824 l 771 1018 l 631 1018 l 631 824 l 244 824 l 244 1018 l 104 1018 l 104 824 l 35 824 l 35 714 l 104 714 l 104 0 l 244 0 l 244 342 l 631 342 l 631 0 l 771 0 l 771 714 l 840 714 z m 631 471 l 244 471 l 244 714 l 631 714 z "},"Ł":{"ha":724,"x_min":0,"x_max":0,"o":"m 244 136 l 244 453 l 429 636 l 349 718 l 244 615 l 244 1018 l 104 1018 l 104 475 l -26 343 l 56 263 l 104 313 l 104 0 l 649 0 l 663 136 z "},"ł":{"ha":724,"x_min":0,"x_max":0,"o":"m 244 136 l 244 453 l 429 636 l 349 718 l 244 615 l 244 1018 l 104 1018 l 104 475 l -26 343 l 56 263 l 104 313 l 104 0 l 649 0 l 663 136 z "},"Ę":{"ha":711,"x_min":0,"x_max":0,"o":"m 426 -160 b 608 -317 426 -254 519 -312 l 608 -243 b 494 -158 564 -243 494 -217 b 607 -78 494 -106 560 -82 l 607 0 l 621 136 l 244 136 l 244 335 l 551 335 l 565 475 l 244 475 l 244 881 l 621 881 l 607 1018 l 104 1018 l 104 0 l 607 0 b 426 -160 522 -6 426 -61 z "},"ę":{"ha":711,"x_min":0,"x_max":0,"o":"m 426 -160 b 608 -317 426 -254 519 -312 l 608 -243 b 494 -158 564 -243 494 -217 b 607 -78 494 -106 560 -82 l 607 0 l 621 136 l 244 136 l 244 335 l 551 335 l 565 475 l 244 475 l 244 881 l 621 881 l 607 1018 l 104 1018 l 104 0 l 607 0 b 426 -160 522 -6 426 -61 z "},"Đ":{"ha":1017,"x_min":0,"x_max":0,"o":"m 443 1018 l 104 1018 l 104 489 l 35 489 l 35 374 l 104 374 l 104 0 l 443 0 b 954 508 725 0 954 239 b 443 1018 954 793 711 1019 z m 244 131 l 244 374 l 492 374 l 492 489 l 244 489 l 244 886 l 374 886 b 806 508 638 886 806 696 b 374 131 806 300 635 131 z "},"đ":{"ha":1017,"x_min":0,"x_max":0,"o":"m 443 1018 l 104 1018 l 104 489 l 35 489 l 35 374 l 104 374 l 104 0 l 443 0 b 954 508 725 0 954 239 b 443 1018 954 793 711 1019 z m 244 131 l 244 374 l 492 374 l 492 489 l 244 489 l 244 886 l 374 886 b 806 508 638 886 806 696 b 374 131 806 300 635 131 z "},"Ð":{"ha":1017,"x_min":0,"x_max":0,"o":"m 443 1018 l 104 1018 l 104 489 l 35 489 l 35 374 l 104 374 l 104 0 l 443 0 b 954 508 725 0 954 239 b 443 1018 954 793 711 1019 z m 244 131 l 244 374 l 492 374 l 492 489 l 244 489 l 244 886 l 374 886 b 806 508 638 886 806 696 b 374 131 806 300 635 131 z "},"ð":{"ha":828,"x_min":0,"x_max":0,"o":"m 554 869 l 663 913 l 624 1008 l 501 958 l 467 1018 l 294 1018 l 361 901 l 264 864 l 304 767 l 413 811 l 457 736 b 426 740 446 738 436 740 b 39 363 204 747 39 557 b 414 -12 39 146 222 -8 b 789 364 628 0 789 167 b 732 560 788 438 767 501 b 554 869 664 675 599 790 z m 414 121 b 185 363 288 119 185 244 b 414 613 185 490 293 613 b 643 363 540 613 643 482 b 414 121 643 239 533 121 z "},"Ø":{"ha":1176,"x_min":0,"x_max":0,"o":"m 847 961 l 879 1043 l 742 1043 l 729 1011 b 590 1031 686 1024 638 1031 b 64 507 315 1031 64 803 b 339 49 64 317 176 140 l 296 -61 l 435 -61 l 460 0 b 590 -18 501 -12 544 -18 b 1114 507 861 -18 1114 214 b 847 961 1114 693 1007 868 z m 201 507 b 590 906 201 708 376 906 b 681 882 629 906 667 894 l 392 178 b 201 507 279 243 201 365 z m 590 107 b 510 125 564 107 528 117 l 794 833 b 976 507 901 767 976 644 b 590 107 976 313 808 107 z "},"ø":{"ha":1176,"x_min":0,"x_max":0,"o":"m 847 961 l 879 1043 l 742 1043 l 729 1011 b 590 1031 686 1024 638 1031 b 64 507 315 1031 64 803 b 339 49 64 317 176 140 l 296 -61 l 435 -61 l 460 0 b 590 -18 501 -12 544 -18 b 1114 507 861 -18 1114 214 b 847 961 1114 693 1007 868 z m 201 507 b 590 906 201 708 376 906 b 681 882 629 906 667 894 l 392 178 b 201 507 279 243 201 365 z m 590 107 b 510 125 564 107 528 117 l 794 833 b 976 507 901 767 976 644 b 590 107 976 313 808 107 z "},"¶":{"ha":1101,"x_min":0,"x_max":0,"o":"m 863 -190 l 983 -190 l 983 1074 l 439 1074 b 97 735 244 1074 97 907 b 439 396 97 539 267 396 l 611 396 l 611 -190 l 757 -190 l 757 932 l 863 932 z m 611 535 l 432 535 b 231 733 319 535 231 629 b 432 932 231 844 328 932 l 611 932 z "},"·":{"ha":389,"x_min":0,"x_max":0,"o":"m 271 411 b 190 492 271 456 236 492 b 111 411 147 492 111 456 b 190 332 111 368 147 332 b 271 411 236 332 271 368 z "},"Ţ":{"ha":801,"x_min":0,"x_max":0,"o":"m 424 -37 l 424 0 l 471 0 l 471 897 l 739 897 l 725 1018 l 76 1018 l 63 897 l 331 897 l 331 0 l 353 0 l 353 -110 l 386 -110 b 507 -174 422 -107 507 -124 b 386 -240 507 -222 426 -240 l 358 -240 l 358 -315 l 381 -315 b 576 -174 458 -315 576 -274 b 424 -37 576 -94 493 -49 z "},"ţ":{"ha":801,"x_min":0,"x_max":0,"o":"m 424 -37 l 424 0 l 471 0 l 471 897 l 739 897 l 725 1018 l 76 1018 l 63 897 l 331 897 l 331 0 l 353 0 l 353 -110 l 386 -110 b 507 -174 422 -107 507 -124 b 386 -240 507 -222 426 -240 l 358 -240 l 358 -315 l 381 -315 b 576 -174 458 -315 576 -274 b 424 -37 576 -94 493 -49 z "},"¯":{"ha":813,"x_min":0,"x_max":0,"o":"m 640 843 l 192 843 l 192 757 l 640 757 z "},"Ā":{"ha":894,"x_min":0,"x_max":0,"o":"m 669 1167 l 222 1167 l 222 1081 l 669 1081 z m 449 1036 l 36 0 l 186 0 l 249 153 l 642 153 l 704 0 l 858 0 z m 300 286 l 444 657 l 590 286 z "},"ā":{"ha":894,"x_min":0,"x_max":0,"o":"m 669 1167 l 222 1167 l 222 1081 l 669 1081 z m 449 1036 l 36 0 l 186 0 l 249 153 l 642 153 l 704 0 l 858 0 z m 300 286 l 444 657 l 590 286 z "},"Ĩ":{"ha":382,"x_min":0,"x_max":0,"o":"m 261 1018 l 121 1018 l 121 0 l 261 0 z m 58 1083 b 117 1119 72 1099 90 1119 b 260 1085 165 1119 206 1085 b 392 1150 311 1085 357 1111 l 324 1211 b 261 1175 311 1194 288 1175 b 117 1211 213 1175 169 1211 b -11 1143 65 1211 24 1182 z "},"ĩ":{"ha":382,"x_min":0,"x_max":0,"o":"m 261 1018 l 121 1018 l 121 0 l 261 0 z m 58 1083 b 117 1119 72 1099 90 1119 b 260 1085 165 1119 206 1085 b 392 1150 311 1085 357 1111 l 324 1211 b 261 1175 311 1194 288 1175 b 117 1211 213 1175 169 1211 b -11 1143 65 1211 24 1182 z "},"Ŗ":{"ha":838,"x_min":0,"x_max":0,"o":"m 329 -315 b 525 -174 407 -315 525 -274 b 372 -37 525 -94 442 -49 l 372 -15 l 301 -15 l 301 -110 l 335 -110 b 457 -174 372 -110 457 -122 b 346 -240 457 -221 382 -240 l 285 -240 l 285 -315 z m 761 0 l 601 394 b 760 681 706 467 760 571 b 422 1018 760 874 594 1018 l 106 1018 l 106 0 l 246 0 l 246 342 l 425 342 b 460 344 438 342 449 343 l 604 0 z m 246 471 l 246 889 l 424 889 b 622 681 539 889 622 786 b 424 471 622 567 533 471 z "},"ŗ":{"ha":838,"x_min":0,"x_max":0,"o":"m 329 -315 b 525 -174 407 -315 525 -274 b 372 -37 525 -94 442 -49 l 372 -15 l 301 -15 l 301 -110 l 335 -110 b 457 -174 372 -110 457 -122 b 346 -240 457 -221 382 -240 l 285 -240 l 285 -315 z m 761 0 l 601 394 b 760 681 706 467 760 571 b 422 1018 760 874 594 1018 l 106 1018 l 106 0 l 246 0 l 246 342 l 425 342 b 460 344 438 342 449 343 l 604 0 z m 246 471 l 246 889 l 424 889 b 622 681 539 889 622 786 b 424 471 622 567 533 471 z "},"Ļ":{"ha":724,"x_min":0,"x_max":0,"o":"m 649 0 l 663 136 l 244 136 l 244 1018 l 104 1018 l 104 0 l 278 0 l 278 -111 l 313 -111 b 433 -176 349 -110 433 -126 b 313 -243 433 -225 351 -243 l 261 -243 l 261 -317 l 307 -317 b 501 -175 383 -317 501 -275 b 349 -39 501 -96 418 -51 l 349 0 z "},"ļ":{"ha":724,"x_min":0,"x_max":0,"o":"m 649 0 l 663 136 l 244 136 l 244 1018 l 104 1018 l 104 0 l 278 0 l 278 -111 l 313 -111 b 433 -176 349 -110 433 -126 b 313 -243 433 -225 351 -243 l 261 -243 l 261 -317 l 307 -317 b 501 -175 383 -317 501 -275 b 349 -39 501 -96 418 -51 l 349 0 z "},"Ē":{"ha":711,"x_min":0,"x_max":0,"o":"m 244 335 l 551 335 l 565 475 l 244 475 l 244 881 l 621 881 l 607 1018 l 104 1018 l 104 0 l 607 0 l 621 136 l 244 136 z m 579 1167 l 131 1167 l 131 1081 l 579 1081 z "},"ē":{"ha":711,"x_min":0,"x_max":0,"o":"m 244 335 l 551 335 l 565 475 l 244 475 l 244 881 l 621 881 l 607 1018 l 104 1018 l 104 0 l 607 0 l 621 136 l 244 136 z m 579 1167 l 131 1167 l 131 1081 l 579 1081 z "},"Ģ":{"ha":1108,"x_min":0,"x_max":0,"o":"m 525 600 l 513 469 l 851 469 l 851 226 b 582 118 779 156 681 118 b 201 508 371 118 201 306 b 582 900 201 719 382 900 b 846 776 685 900 778 846 l 908 921 b 588 1032 819 992 711 1032 b 64 508 296 1033 64 785 b 508 -8 64 244 267 32 l 508 -126 l 542 -126 b 663 -192 578 -126 663 -140 b 542 -258 663 -240 582 -258 l 490 -258 l 490 -332 l 547 -332 b 732 -190 625 -332 732 -282 b 579 -56 732 -112 649 -67 l 579 -15 b 999 188 750 -17 903 65 l 999 601 b 525 600 842 601 682 600 z "},"ģ":{"ha":1108,"x_min":0,"x_max":0,"o":"m 525 600 l 513 472 l 851 472 l 851 226 b 582 118 779 156 681 118 b 201 508 371 118 201 306 b 582 900 201 719 382 900 b 846 776 685 900 778 846 l 908 921 b 588 1032 819 992 711 1032 b 64 508 296 1033 64 785 b 508 -8 64 244 267 32 l 508 -126 l 542 -126 b 663 -192 578 -126 663 -140 b 542 -258 663 -240 582 -258 l 490 -258 l 490 -332 l 547 -332 b 732 -190 625 -332 732 -282 b 579 -56 732 -112 649 -67 l 579 -15 b 999 188 750 -17 903 65 l 999 601 b 525 600 842 601 682 600 z "},"Į":{"ha":382,"x_min":0,"x_max":0,"o":"m 121 1018 l 121 0 l 260 0 b 75 -168 171 -8 75 -69 b 263 -326 75 -265 171 -321 l 263 -251 b 189 -239 243 -253 214 -250 b 133 -179 163 -229 139 -212 b 261 -87 133 -118 208 -92 l 261 1018 z "},"į":{"ha":382,"x_min":0,"x_max":0,"o":"m 121 1018 l 121 0 l 260 0 b 75 -168 171 -8 75 -69 b 263 -326 75 -265 171 -321 l 263 -251 b 189 -239 243 -253 214 -250 b 133 -179 163 -229 139 -212 b 261 -87 133 -118 208 -92 l 261 1018 z "},"Ė":{"ha":711,"x_min":0,"x_max":0,"o":"m 244 335 l 551 335 l 565 475 l 244 475 l 244 881 l 621 881 l 607 1018 l 104 1018 l 104 0 l 607 0 l 621 136 l 244 136 z m 433 1156 b 354 1236 433 1200 400 1236 b 275 1156 311 1236 275 1200 b 354 1076 275 1113 311 1076 b 433 1156 400 1076 433 1113 z "},"ė":{"ha":711,"x_min":0,"x_max":0,"o":"m 244 335 l 551 335 l 565 475 l 244 475 l 244 881 l 621 881 l 607 1018 l 104 1018 l 104 0 l 607 0 l 621 136 l 244 136 z m 433 1156 b 354 1236 433 1200 400 1236 b 275 1156 311 1236 275 1200 b 354 1076 275 1113 311 1076 b 433 1156 400 1076 433 1113 z "},"Ī":{"ha":382,"x_min":0,"x_max":0,"o":"m 261 1018 l 121 1018 l 121 0 l 261 0 z m 415 1167 l -35 1167 l -35 1081 l 415 1081 z "},"ī":{"ha":382,"x_min":0,"x_max":0,"o":"m 261 1018 l 121 1018 l 121 0 l 261 0 z m 415 1167 l -35 1167 l -35 1081 l 415 1081 z "},"Ņ":{"ha":935,"x_min":0,"x_max":0,"o":"m 372 -317 b 568 -175 450 -317 568 -275 b 415 -39 568 -96 485 -51 l 415 -18 l 344 -18 l 344 -111 l 378 -111 b 499 -176 414 -111 499 -125 b 389 -243 499 -224 425 -243 l 328 -243 l 328 -317 z m 828 -19 l 828 1018 l 688 1018 l 688 371 l 106 1031 l 106 0 l 246 0 l 246 635 z "},"ņ":{"ha":935,"x_min":0,"x_max":0,"o":"m 372 -317 b 568 -175 450 -317 568 -275 b 415 -39 568 -96 485 -51 l 415 -18 l 344 -18 l 344 -111 l 378 -111 b 499 -176 414 -111 499 -125 b 389 -243 499 -224 425 -243 l 328 -243 l 328 -317 z m 828 -19 l 828 1018 l 688 1018 l 688 371 l 106 1031 l 106 0 l 246 0 l 246 635 z "},"Ō":{"ha":1176,"x_min":0,"x_max":0,"o":"m 813 1167 l 363 1167 l 363 1081 l 813 1081 z m 590 -18 b 1114 507 861 -18 1114 214 b 590 1031 1114 781 883 1031 b 64 507 315 1031 64 803 b 590 -18 64 232 297 -18 z m 201 507 b 590 906 201 708 376 906 b 976 507 790 906 976 721 b 590 107 976 313 808 107 b 201 507 389 107 201 292 z "},"ō":{"ha":1176,"x_min":0,"x_max":0,"o":"m 813 1167 l 363 1167 l 363 1081 l 813 1081 z m 590 -18 b 1114 507 861 -18 1114 214 b 590 1031 1114 781 883 1031 b 64 507 315 1031 64 803 b 590 -18 64 232 297 -18 z m 201 507 b 590 906 201 708 376 906 b 976 507 790 906 976 721 b 590 107 976 313 808 107 b 201 507 389 107 201 292 z "},"Ķ":{"ha":781,"x_min":0,"x_max":0,"o":"m 343 -315 b 538 -174 419 -315 538 -274 b 385 -37 538 -94 454 -49 l 385 -15 l 315 -15 l 315 -110 l 349 -110 b 469 -174 385 -110 469 -122 b 358 -240 469 -221 394 -240 l 319 -240 l 319 -315 z m 335 394 l 563 0 l 711 0 l 411 522 l 700 1018 l 556 1018 l 244 479 l 244 1018 l 104 1018 l 104 0 l 244 0 l 244 244 z "},"ķ":{"ha":781,"x_min":0,"x_max":0,"o":"m 343 -315 b 538 -174 419 -315 538 -274 b 385 -37 538 -94 454 -49 l 385 -15 l 315 -15 l 315 -110 l 349 -110 b 469 -174 385 -110 469 -122 b 358 -240 469 -221 394 -240 l 319 -240 l 319 -315 z m 335 394 l 563 0 l 711 0 l 411 522 l 700 1018 l 556 1018 l 244 479 l 244 1018 l 104 1018 l 104 0 l 244 0 l 244 244 z "},"Ų":{"ha":871,"x_min":0,"x_max":0,"o":"m 626 1018 l 626 317 b 433 126 628 214 532 126 b 250 317 331 126 250 218 l 250 1018 l 110 1018 l 110 314 b 350 -6 108 158 218 33 b 324 -86 333 -28 324 -56 b 511 -244 324 -183 419 -240 l 511 -171 b 414 -86 467 -171 414 -146 b 511 -8 414 -28 460 -18 b 763 301 660 28 764 161 l 763 1018 z "},"ų":{"ha":871,"x_min":0,"x_max":0,"o":"m 626 1018 l 626 317 b 433 126 628 214 532 126 b 250 317 331 126 250 218 l 250 1018 l 110 1018 l 110 314 b 350 -6 108 158 218 33 b 324 -86 333 -28 324 -56 b 511 -244 324 -183 419 -240 l 511 -171 b 414 -86 467 -171 414 -146 b 511 -8 414 -28 460 -18 b 763 301 660 28 764 161 l 763 1018 z "},"Ũ":{"ha":871,"x_min":0,"x_max":0,"o":"m 301 1083 b 360 1119 315 1099 333 1119 b 503 1085 408 1119 449 1085 b 633 1150 554 1085 599 1111 l 567 1211 b 504 1175 554 1194 531 1175 b 360 1211 456 1175 413 1211 b 232 1143 308 1211 267 1182 z m 763 1018 l 626 1018 l 626 317 b 433 126 628 214 532 126 b 250 317 329 126 250 219 l 250 1018 l 110 1018 l 110 314 b 435 -17 107 128 267 -17 b 763 301 621 -17 764 138 z "},"ũ":{"ha":871,"x_min":0,"x_max":0,"o":"m 301 1083 b 360 1119 315 1099 333 1119 b 503 1085 408 1119 449 1085 b 633 1150 554 1085 599 1111 l 567 1211 b 504 1175 554 1194 531 1175 b 360 1211 456 1175 413 1211 b 232 1143 308 1211 267 1182 z m 763 1018 l 626 1018 l 626 317 b 433 126 628 214 532 126 b 250 317 329 126 250 219 l 250 1018 l 110 1018 l 110 314 b 435 -17 107 128 267 -17 b 763 301 621 -17 764 138 z "},"Ū":{"ha":871,"x_min":0,"x_max":0,"o":"m 658 1167 l 208 1167 l 208 1081 l 658 1081 z m 763 1018 l 626 1018 l 626 317 b 433 126 628 214 532 126 b 250 317 329 126 250 219 l 250 1018 l 110 1018 l 110 314 b 435 -17 107 128 267 -17 b 763 301 621 -17 764 138 z "},"ū":{"ha":871,"x_min":0,"x_max":0,"o":"m 658 1167 l 208 1167 l 208 1081 l 658 1081 z m 763 1018 l 626 1018 l 626 317 b 433 126 628 214 532 126 b 250 317 329 126 250 219 l 250 1018 l 110 1018 l 110 314 b 435 -17 107 128 267 -17 b 763 301 621 -17 764 138 z "},"Ŧ":{"ha":801,"x_min":0,"x_max":0,"o":"m 471 897 l 739 897 l 725 1018 l 76 1018 l 63 897 l 331 897 l 331 606 l 132 606 l 132 499 l 331 499 l 331 0 l 471 0 l 471 499 l 671 499 l 671 606 l 471 606 z "},"ŧ":{"ha":801,"x_min":0,"x_max":0,"o":"m 471 897 l 739 897 l 725 1018 l 76 1018 l 63 897 l 331 897 l 331 606 l 132 606 l 132 499 l 331 499 l 331 0 l 471 0 l 471 499 l 671 499 l 671 606 l 471 606 z "},"":{"ha":704,"x_min":0,"x_max":0,"o":"m 656 696 b 354 999 656 856 522 999 b 49 696 194 999 49 867 b 354 393 49 538 183 393 b 656 696 511 393 656 528 z m 189 696 b 354 869 189 781 261 869 b 517 696 438 869 517 786 b 354 524 517 615 446 524 b 189 696 268 522 189 607 z m 136 138 l 569 138 l 569 261 l 136 261 z "},"":{"ha":499,"x_min":0,"x_max":0,"o":"m 217 597 l 356 597 l 368 736 l 217 736 l 217 874 l 422 874 l 407 1010 l 69 1010 l 69 388 l 407 388 l 422 522 l 217 522 z m 69 138 l 415 138 l 415 261 l 69 261 z "},"":{"ha":704,"x_min":0,"x_max":0,"o":"m 656 696 b 354 999 656 856 522 999 b 49 696 194 999 49 867 b 354 393 49 538 183 393 b 656 696 511 393 656 528 z m 189 696 b 354 869 189 781 261 869 b 517 696 438 869 517 786 b 354 524 517 615 446 524 b 189 696 268 522 189 607 z m 136 138 l 569 138 l 569 261 l 136 261 z "},"":{"ha":499,"x_min":0,"x_max":0,"o":"m 217 597 l 356 597 l 368 736 l 217 736 l 217 874 l 422 874 l 407 1010 l 69 1010 l 69 388 l 407 388 l 422 522 l 217 522 z m 69 138 l 415 138 l 415 261 l 69 261 z "},"":{"ha":969,"x_min":0,"x_max":0,"o":"m 244 1018 l 104 1018 l 104 0 l 828 0 l 842 136 l 244 136 z m 581 1025 l 582 1021 l 292 304 l 421 304 l 461 401 l 664 401 l 703 304 l 871 304 l 582 1021 l 583 1025 z m 563 653 l 614 522 l 510 522 z "},"":{"ha":843,"x_min":0,"x_max":0,"o":"m 244 1018 l 104 1018 l 104 0 l 690 0 l 704 136 l 244 136 z m 525 557 l 681 557 l 693 696 l 525 696 l 525 871 l 747 871 l 733 1008 l 388 1008 l 388 304 l 733 304 l 747 440 l 525 440 z "},"":{"ha":751,"x_min":0,"x_max":0,"o":"m 244 136 l 244 1018 l 104 1018 l 104 0 l 646 0 l 660 136 z m 567 1018 l 418 1018 l 418 304 l 567 304 z "},"":{"ha":1093,"x_min":0,"x_max":0,"o":"m 688 1007 b 336 657 503 1007 336 854 b 688 308 336 475 490 308 b 1035 657 868 308 1035 463 b 688 1007 1035 842 882 1007 z m 244 1018 l 104 1018 l 104 0 l 836 0 l 850 136 l 244 136 z m 688 435 b 471 657 575 435 471 540 b 688 879 471 768 567 879 b 901 657 797 879 901 775 b 688 435 901 551 808 435 z "},"":{"ha":939,"x_min":0,"x_max":0,"o":"m 244 1018 l 104 1018 l 104 0 l 776 0 l 790 136 l 244 136 z m 697 1018 l 697 538 b 615 424 697 474 676 424 b 532 538 551 424 532 476 l 532 1018 l 392 1018 l 392 515 b 615 288 390 386 500 288 b 843 507 746 288 844 393 l 843 1018 z "},"":{"ha":969,"x_min":0,"x_max":0,"o":"m 244 1018 l 104 1018 l 104 0 l 828 0 l 842 136 l 244 136 z m 581 1025 l 582 1021 l 292 304 l 421 304 l 461 401 l 664 401 l 703 304 l 871 304 l 582 1021 l 583 1025 z m 563 653 l 614 522 l 510 522 z "},"":{"ha":843,"x_min":0,"x_max":0,"o":"m 244 1018 l 104 1018 l 104 0 l 690 0 l 704 136 l 244 136 z m 525 557 l 681 557 l 693 696 l 525 696 l 525 871 l 747 871 l 733 1008 l 388 1008 l 388 304 l 733 304 l 747 440 l 525 440 z "},"":{"ha":751,"x_min":0,"x_max":0,"o":"m 244 136 l 244 1018 l 104 1018 l 104 0 l 646 0 l 660 136 z m 567 1018 l 418 1018 l 418 304 l 567 304 z "},"":{"ha":1093,"x_min":0,"x_max":0,"o":"m 688 1007 b 336 657 503 1007 336 854 b 688 308 336 475 490 308 b 1035 657 868 308 1035 463 b 688 1007 1035 842 882 1007 z m 244 1018 l 104 1018 l 104 0 l 836 0 l 850 136 l 244 136 z m 688 435 b 471 657 575 435 471 540 b 688 879 471 768 567 879 b 901 657 797 879 901 775 b 688 435 901 551 808 435 z "},"":{"ha":939,"x_min":0,"x_max":0,"o":"m 244 1018 l 104 1018 l 104 0 l 776 0 l 790 136 l 244 136 z m 697 1018 l 697 538 b 615 424 697 474 676 424 b 532 538 551 424 532 476 l 532 1018 l 392 1018 l 392 515 b 615 288 390 386 500 288 b 843 507 746 288 844 393 l 843 1018 z "},"¹":{"ha":285,"x_min":0,"x_max":0,"o":"m 157 1060 l 42 939 l 42 828 l 99 885 l 99 557 l 196 557 l 196 1060 z "},"²":{"ha":415,"x_min":0,"x_max":0,"o":"m 221 635 l 315 767 b 371 918 338 797 371 856 b 208 1068 371 1015 292 1068 b 44 918 125 1068 44 1013 b 181 801 44 846 104 801 l 181 881 b 147 926 163 885 147 906 b 213 990 147 968 174 990 b 265 918 246 990 265 957 b 222 808 265 876 242 836 b 42 557 161 717 96 635 l 367 557 l 375 635 z "},"³":{"ha":385,"x_min":0,"x_max":0,"o":"m 185 938 l 281 1033 l 308 1060 l 32 1060 l 24 982 l 126 982 l 65 921 l 65 819 b 146 858 86 844 114 858 b 251 740 208 858 251 804 b 176 631 251 686 224 647 b 147 625 168 626 157 625 b 69 653 119 625 88 635 l 15 590 b 144 543 50 561 93 543 b 343 743 258 543 343 642 b 185 938 343 840 271 919 z "},"×":{"ha":721,"x_min":0,"x_max":0,"o":"m 615 251 l 438 429 l 624 617 l 549 692 l 361 506 l 185 681 l 110 606 l 286 429 l 97 240 l 172 165 l 361 354 l 539 176 z "},"Ș":{"ha":793,"x_min":0,"x_max":0,"o":"m 396 -54 b 315 -135 351 -54 315 -90 b 383 -212 315 -174 344 -206 b 322 -262 367 -243 343 -258 l 322 -304 b 475 -135 403 -287 475 -201 b 396 -54 475 -90 440 -54 z m 403 -8 b 713 278 544 -8 713 103 b 265 751 713 518 265 589 b 426 901 265 838 343 901 b 597 824 482 901 546 871 l 693 925 b 425 1029 626 986 524 1029 b 122 754 261 1029 122 932 b 571 260 122 471 571 460 b 408 122 571 219 531 122 b 156 292 285 122 226 193 l 35 208 b 403 -8 115 93 247 -8 z "},"ș":{"ha":793,"x_min":0,"x_max":0,"o":"m 396 -54 b 315 -135 351 -54 315 -90 b 383 -212 315 -174 344 -206 b 322 -262 367 -243 343 -258 l 322 -304 b 475 -135 403 -287 475 -201 b 396 -54 475 -90 440 -54 z m 403 -8 b 713 278 544 -8 713 103 b 265 751 713 518 265 589 b 426 901 265 838 343 901 b 597 824 482 901 546 871 l 693 925 b 425 1029 626 986 524 1029 b 122 754 261 1029 122 932 b 571 260 122 471 571 460 b 408 122 571 219 531 122 b 156 292 285 122 226 193 l 35 208 b 403 -8 115 93 247 -8 z "},"Ț":{"ha":801,"x_min":0,"x_max":0,"o":"m 739 897 l 725 1018 l 76 1018 l 63 897 l 331 897 l 331 0 l 471 0 l 471 897 z m 401 -54 b 322 -135 358 -54 322 -90 b 389 -212 322 -174 351 -207 b 328 -262 374 -243 350 -258 l 328 -306 b 482 -135 410 -287 482 -201 b 401 -54 482 -90 447 -54 z "},"ț":{"ha":801,"x_min":0,"x_max":0,"o":"m 739 897 l 725 1018 l 76 1018 l 63 897 l 331 897 l 331 0 l 471 0 l 471 897 z m 401 -54 b 322 -135 358 -54 322 -90 b 389 -212 322 -174 351 -207 b 328 -262 374 -243 350 -258 l 328 -306 b 482 -135 410 -287 482 -201 b 401 -54 482 -90 447 -54 z "},"≠":{"ha":857,"x_min":0,"x_max":0,"o":"m 746 506 l 746 613 l 567 613 l 742 1046 l 611 1046 l 436 613 l 111 613 l 111 506 l 392 506 l 321 329 l 111 329 l 111 221 l 278 221 l 164 -61 l 296 -61 l 410 221 l 746 221 l 746 329 l 453 329 l 524 506 z "},"÷":{"ha":743,"x_min":0,"x_max":0,"o":"m 82 403 l 82 304 l 661 304 l 661 403 z m 371 190 b 292 111 326 190 292 154 b 371 32 292 67 326 32 b 451 111 415 32 451 67 b 371 190 451 154 415 190 z m 371 517 b 451 597 415 517 451 553 b 371 676 451 640 415 676 b 292 597 326 676 292 640 b 371 517 292 553 326 517 z "},"•":{"ha":383,"x_min":0,"x_max":0,"o":"m 192 243 b 331 382 265 243 331 304 b 192 519 331 454 269 519 b 54 382 119 519 54 460 b 192 243 54 310 115 243 z "},"−":{"ha":750,"x_min":0,"x_max":0,"o":"m 83 410 l 83 310 l 667 310 l 667 410 z "},"±":{"ha":833,"x_min":0,"x_max":0,"o":"m 469 593 l 469 856 l 363 856 l 363 593 l 113 593 l 113 485 l 363 485 l 363 221 l 469 221 l 469 485 l 721 485 l 721 593 z m 122 47 l 706 47 l 706 147 l 122 147 z "},"⁴":{"ha":390,"x_min":0,"x_max":0,"o":"m 332 864 l 244 864 l 244 733 l 139 733 l 271 1060 l 174 1060 l 11 660 l 244 660 l 244 557 l 332 557 l 332 660 l 347 660 l 354 733 l 332 733 z "},"¼":{"ha":906,"x_min":0,"x_max":0,"o":"m 185 1060 l 69 939 l 69 828 l 126 885 l 126 557 l 224 557 l 224 1060 z m 658 1018 l 71 0 l 179 0 l 767 1018 z m 813 307 l 725 307 l 725 176 l 621 176 l 751 503 l 654 503 l 493 103 l 725 103 l 725 0 l 813 0 l 813 103 l 829 103 l 836 176 l 813 176 z "},"½":{"ha":894,"x_min":0,"x_max":0,"o":"m 186 1060 l 71 939 l 71 828 l 126 885 l 126 557 l 225 557 l 225 1060 z m 643 1018 l 56 0 l 164 0 l 751 1018 z m 665 78 l 760 210 b 815 361 781 239 815 299 b 653 511 815 458 736 511 b 489 361 569 511 489 456 b 625 244 489 289 549 244 l 625 324 b 592 369 607 328 592 349 b 656 433 592 410 617 433 b 710 361 689 433 710 400 b 667 251 710 319 686 279 b 485 0 604 160 539 78 l 811 0 l 819 78 z "},"¾":{"ha":967,"x_min":0,"x_max":0,"o":"m 718 1018 l 131 0 l 239 0 l 826 1018 z m 875 307 l 788 307 l 788 176 l 682 176 l 814 503 l 717 503 l 554 103 l 788 103 l 788 0 l 875 0 l 875 103 l 892 103 l 897 176 l 875 176 z m 239 938 l 335 1033 l 363 1060 l 88 1060 l 79 982 l 182 982 l 119 921 l 119 819 b 200 858 140 844 168 858 b 306 740 263 858 306 804 b 231 631 306 686 278 647 b 201 625 222 626 213 625 b 124 653 174 625 143 635 l 69 590 b 199 543 104 561 149 543 b 397 743 313 543 397 642 b 239 938 397 840 325 919 z "}}}
